solid OpenSCAD_Model
  facet normal -1 0 0
    outer loop
      vertex -0.6 12 0.6
      vertex -0.6 12 -0.6
      vertex -0.6 0.6 0.6
    endloop
  endfacet
  facet normal -1 0 0
    outer loop
      vertex -0.6 -0.6 -0.6
      vertex -0.6 -0.6 12
      vertex -0.6 0.6 0.6
    endloop
  endfacet
  facet normal -1 0 0
    outer loop
      vertex -0.6 -0.6 -0.6
      vertex -0.6 0.6 0.6
      vertex -0.6 12 -0.6
    endloop
  endfacet
  facet normal -1 0 0
    outer loop
      vertex -0.6 0.6 0.6
      vertex -0.6 -0.6 12
      vertex -0.6 0.6 12
    endloop
  endfacet
  facet normal 0 -1 0
    outer loop
      vertex 0.6 -0.6 0.6
      vertex -0.6 -0.6 -0.6
      vertex 12 -0.6 -0.6
    endloop
  endfacet
  facet normal 0 -1 0
    outer loop
      vertex 0.6 -0.6 0.6
      vertex 0.6 -0.6 12
      vertex -0.6 -0.6 12
    endloop
  endfacet
  facet normal 0 -1 0
    outer loop
      vertex -0.6 -0.6 12
      vertex -0.6 -0.6 -0.6
      vertex 0.6 -0.6 0.6
    endloop
  endfacet
  facet normal 0 -1 0
    outer loop
      vertex 12 -0.6 0.6
      vertex 0.6 -0.6 0.6
      vertex 12 -0.6 -0.6
    endloop
  endfacet
  facet normal 0 0 -1
    outer loop
      vertex 12 0.6 -0.6
      vertex 12 -0.6 -0.6
      vertex 0.6 0.6 -0.6
    endloop
  endfacet
  facet normal 0 0 -1
    outer loop
      vertex -0.6 -0.6 -0.6
      vertex -0.6 12 -0.6
      vertex 0.6 0.6 -0.6
    endloop
  endfacet
  facet normal 0 0 -1
    outer loop
      vertex -0.6 -0.6 -0.6
      vertex 0.6 0.6 -0.6
      vertex 12 -0.6 -0.6
    endloop
  endfacet
  facet normal 0 0 -1
    outer loop
      vertex 0.6 0.6 -0.6
      vertex -0.6 12 -0.6
      vertex 0.6 12 -0.6
    endloop
  endfacet
  facet normal 0 1 0
    outer loop
      vertex -0.6 12 -0.6
      vertex -0.6 12 0.6
      vertex 0.6 12 -0.6
    endloop
  endfacet
  facet normal 0 1 0
    outer loop
      vertex 0.6 12 -0.6
      vertex -0.6 12 0.6
      vertex 0.6 12 0.6
    endloop
  endfacet
  facet normal 0 0 1
    outer loop
      vertex -0.6 12 0.6
      vertex -0.6 0.6 0.6
      vertex 0.6 0.6 0.6
    endloop
  endfacet
  facet normal 0 0 1
    outer loop
      vertex 0.6 12 0.6
      vertex -0.6 12 0.6
      vertex 0.6 0.6 0.6
    endloop
  endfacet
  facet normal 0 1 0
    outer loop
      vertex -0.6 0.6 0.6
      vertex -0.6 0.6 12
      vertex 0.6 0.6 0.6
    endloop
  endfacet
  facet normal 0 1 0
    outer loop
      vertex 0.6 0.6 0.6
      vertex -0.6 0.6 12
      vertex 0.6 0.6 12
    endloop
  endfacet
  facet normal 0 0 1
    outer loop
      vertex -0.6 0.6 12
      vertex -0.6 -0.6 12
      vertex 0.6 -0.6 12
    endloop
  endfacet
  facet normal 0 0 1
    outer loop
      vertex 0.6 0.6 12
      vertex -0.6 0.6 12
      vertex 0.6 -0.6 12
    endloop
  endfacet
  facet normal 1 0 0
    outer loop
      vertex 0.6 -0.6 12
      vertex 0.6 -0.6 0.6
      vertex 0.6 0.6 0.6
    endloop
  endfacet
  facet normal 1 0 0
    outer loop
      vertex 0.6 0.6 12
      vertex 0.6 -0.6 12
      vertex 0.6 0.6 0.6
    endloop
  endfacet
  facet normal 0 0 1
    outer loop
      vertex 0.6 0.6 0.6
      vertex 0.6 -0.6 0.6
      vertex 12 -0.6 0.6
    endloop
  endfacet
  facet normal 0 0 1
    outer loop
      vertex 12 0.6 0.6
      vertex 0.6 0.6 0.6
      vertex 12 -0.6 0.6
    endloop
  endfacet
  facet normal 1 0 0
    outer loop
      vertex 12 -0.6 0.6
      vertex 12 -0.6 -0.6
      vertex 12 0.6 -0.6
    endloop
  endfacet
  facet normal 1 0 0
    outer loop
      vertex 12 0.6 0.6
      vertex 12 -0.6 0.6
      vertex 12 0.6 -0.6
    endloop
  endfacet
  facet normal 0 1 0
    outer loop
      vertex 0.6 0.6 -0.6
      vertex 0.6 0.6 0.6
      vertex 12 0.6 -0.6
    endloop
  endfacet
  facet normal 0 1 0
    outer loop
      vertex 12 0.6 -0.6
      vertex 0.6 0.6 0.6
      vertex 12 0.6 0.6
    endloop
  endfacet
  facet normal 1 0 0
    outer loop
      vertex 0.6 0.6 0.6
      vertex 0.6 0.6 -0.6
      vertex 0.6 12 -0.6
    endloop
  endfacet
  facet normal 1 0 0
    outer loop
      vertex 0.6 12 0.6
      vertex 0.6 0.6 0.6
      vertex 0.6 12 -0.6
    endloop
  endfacet
  facet normal 0 0 -1
    outer loop
      vertex -2.25 -0.3 13.2
      vertex -2.25 0.3 13.2
      vertex 2.25 -0.3 13.2
    endloop
  endfacet
  facet normal 0 0 -1
    outer loop
      vertex 2.25 -0.3 13.2
      vertex -2.25 0.3 13.2
      vertex 2.25 0.3 13.2
    endloop
  endfacet
  facet normal -1 1.22465e-16 0
    outer loop
      vertex -2.25 -0.3 13.2
      vertex -2.25 -0.3 13.8
      vertex -2.25 0.3 13.2
    endloop
  endfacet
  facet normal -1 1.22465e-16 0
    outer loop
      vertex -2.25 0.3 13.2
      vertex -2.25 -0.3 13.8
      vertex -2.25 0.3 13.8
    endloop
  endfacet
  facet normal -1.22465e-16 -1 0
    outer loop
      vertex -2.25 -0.3 13.8
      vertex -2.25 -0.3 13.2
      vertex 2.25 -0.3 13.2
    endloop
  endfacet
  facet normal -1.22465e-16 -1 0
    outer loop
      vertex 1.72085 -0.3 13.8
      vertex -2.25 -0.3 13.8
      vertex 2.25 -0.3 13.2
    endloop
  endfacet
  facet normal -1.22465e-16 -1 0
    outer loop
      vertex 2.25 -0.3 19.2
      vertex -1.71235 -0.3 18.6
      vertex 2.25 -0.3 18.6
    endloop
  endfacet
  facet normal -1.22465e-16 -1 0
    outer loop
      vertex -2.25 -0.3 19.2
      vertex -1.71235 -0.3 18.6
      vertex 2.25 -0.3 19.2
    endloop
  endfacet
  facet normal -1.22465e-16 -1 0
    outer loop
      vertex -2.25 -0.3 19.2
      vertex -2.25 -0.3 18.3025
      vertex -1.71235 -0.3 18.6
    endloop
  endfacet
  facet normal -1.22465e-16 -1 0
    outer loop
      vertex 2.25 -0.3 14.1071
      vertex 1.72085 -0.3 13.8
      vertex 2.25 -0.3 13.2
    endloop
  endfacet
  facet normal -1.22465e-16 -1 0
    outer loop
      vertex -2.25 -0.3 18.3025
      vertex 2.25 -0.3 14.1071
      vertex -1.71235 -0.3 18.6
    endloop
  endfacet
  facet normal -1.22465e-16 -1 0
    outer loop
      vertex -2.25 -0.3 18.3025
      vertex 1.72085 -0.3 13.8
      vertex 2.25 -0.3 14.1071
    endloop
  endfacet
  facet normal 1 -1.22465e-16 0
    outer loop
      vertex 2.25 -0.3 14.1071
      vertex 2.25 -0.3 13.2
      vertex 2.25 0.3 13.2
    endloop
  endfacet
  facet normal 1 -1.22465e-16 0
    outer loop
      vertex 2.25 0.3 14.1071
      vertex 2.25 -0.3 14.1071
      vertex 2.25 0.3 13.2
    endloop
  endfacet
  facet normal 1.22465e-16 1 0
    outer loop
      vertex -2.25 0.3 13.2
      vertex -2.25 0.3 13.8
      vertex 2.25 0.3 13.2
    endloop
  endfacet
  facet normal 1.22465e-16 1 0
    outer loop
      vertex 2.25 0.3 13.2
      vertex -2.25 0.3 13.8
      vertex 1.72085 0.3 13.8
    endloop
  endfacet
  facet normal 1.22465e-16 1 0
    outer loop
      vertex 1.72085 0.3 13.8
      vertex -2.25 0.3 18.3025
      vertex -2.25 0.3 19.2
    endloop
  endfacet
  facet normal 1.22465e-16 1 0
    outer loop
      vertex 1.72085 0.3 13.8
      vertex -2.25 0.3 19.2
      vertex 2.25 0.3 13.2
    endloop
  endfacet
  facet normal 1.22465e-16 1 0
    outer loop
      vertex 2.25 0.3 18.6
      vertex -2.25 0.3 19.2
      vertex 2.25 0.3 19.2
    endloop
  endfacet
  facet normal 1.22465e-16 1 0
    outer loop
      vertex -1.71235 0.3 18.6
      vertex -2.25 0.3 19.2
      vertex 2.25 0.3 18.6
    endloop
  endfacet
  facet normal 1.22465e-16 1 0
    outer loop
      vertex 2.25 0.3 13.2
      vertex -2.25 0.3 19.2
      vertex -1.71235 0.3 18.6
    endloop
  endfacet
  facet normal 1.22465e-16 1 0
    outer loop
      vertex 2.25 0.3 13.2
      vertex -1.71235 0.3 18.6
      vertex 2.25 0.3 14.1071
    endloop
  endfacet
  facet normal 0 0 1
    outer loop
      vertex -2.25 0.3 13.8
      vertex -2.25 -0.3 13.8
      vertex 1.72085 -0.3 13.8
    endloop
  endfacet
  facet normal 0 0 1
    outer loop
      vertex 1.72085 0.3 13.8
      vertex -2.25 0.3 13.8
      vertex 1.72085 -0.3 13.8
    endloop
  endfacet
  facet normal -0.75 9.18485e-17 -0.661438
    outer loop
      vertex -2.25 -0.3 18.3025
      vertex -2.25 0.3 18.3025
      vertex 1.72085 -0.3 13.8
    endloop
  endfacet
  facet normal -0.75 9.18485e-17 -0.661438
    outer loop
      vertex 1.72085 -0.3 13.8
      vertex -2.25 0.3 18.3025
      vertex 1.72085 0.3 13.8
    endloop
  endfacet
  facet normal -1 1.22465e-16 0
    outer loop
      vertex -2.25 -0.3 18.3025
      vertex -2.25 -0.3 19.2
      vertex -2.25 0.3 18.3025
    endloop
  endfacet
  facet normal -1 1.22465e-16 0
    outer loop
      vertex -2.25 0.3 18.3025
      vertex -2.25 -0.3 19.2
      vertex -2.25 0.3 19.2
    endloop
  endfacet
  facet normal 0 0 1
    outer loop
      vertex -2.25 0.3 19.2
      vertex -2.25 -0.3 19.2
      vertex 2.25 -0.3 19.2
    endloop
  endfacet
  facet normal 0 0 1
    outer loop
      vertex 2.25 0.3 19.2
      vertex -2.25 0.3 19.2
      vertex 2.25 -0.3 19.2
    endloop
  endfacet
  facet normal 1 -1.22465e-16 0
    outer loop
      vertex 2.25 -0.3 19.2
      vertex 2.25 -0.3 18.6
      vertex 2.25 0.3 18.6
    endloop
  endfacet
  facet normal 1 -1.22465e-16 0
    outer loop
      vertex 2.25 0.3 19.2
      vertex 2.25 -0.3 19.2
      vertex 2.25 0.3 18.6
    endloop
  endfacet
  facet normal 0 0 -1
    outer loop
      vertex -1.71235 -0.3 18.6
      vertex -1.71235 0.3 18.6
      vertex 2.25 -0.3 18.6
    endloop
  endfacet
  facet normal 0 0 -1
    outer loop
      vertex 2.25 -0.3 18.6
      vertex -1.71235 0.3 18.6
      vertex 2.25 0.3 18.6
    endloop
  endfacet
  facet normal 0.75 -9.18485e-17 0.661438
    outer loop
      vertex -1.71235 0.3 18.6
      vertex -1.71235 -0.3 18.6
      vertex 2.25 -0.3 14.1071
    endloop
  endfacet
  facet normal 0.75 -9.18485e-17 0.661438
    outer loop
      vertex 2.25 0.3 14.1071
      vertex -1.71235 0.3 18.6
      vertex 2.25 -0.3 14.1071
    endloop
  endfacet
  facet normal 0 0 -1
    outer loop
      vertex -0.3 -2.25 20.4
      vertex -0.3 2.25 20.4
      vertex 0.3 -2.25 20.4
    endloop
  endfacet
  facet normal 0 0 -1
    outer loop
      vertex 0.3 -2.25 20.4
      vertex -0.3 2.25 20.4
      vertex 0.3 2.25 20.4
    endloop
  endfacet
  facet normal -1 1.83697e-16 0
    outer loop
      vertex -0.3 -2.25 20.4
      vertex -0.3 -2.25 21
      vertex -0.3 2.25 20.4
    endloop
  endfacet
  facet normal -1 1.83697e-16 0
    outer loop
      vertex -0.3 2.25 20.4
      vertex -0.3 -2.25 21
      vertex -0.3 1.72085 21
    endloop
  endfacet
  facet normal -1 1.83697e-16 0
    outer loop
      vertex -0.3 1.72085 21
      vertex -0.3 -2.25 25.5025
      vertex -0.3 -2.25 26.4
    endloop
  endfacet
  facet normal -1 1.83697e-16 0
    outer loop
      vertex -0.3 1.72085 21
      vertex -0.3 -2.25 26.4
      vertex -0.3 2.25 20.4
    endloop
  endfacet
  facet normal -1 1.83697e-16 0
    outer loop
      vertex -0.3 2.25 25.8
      vertex -0.3 -2.25 26.4
      vertex -0.3 2.25 26.4
    endloop
  endfacet
  facet normal -1 1.83697e-16 0
    outer loop
      vertex -0.3 -1.71235 25.8
      vertex -0.3 -2.25 26.4
      vertex -0.3 2.25 25.8
    endloop
  endfacet
  facet normal -1 1.83697e-16 0
    outer loop
      vertex -0.3 2.25 20.4
      vertex -0.3 -2.25 26.4
      vertex -0.3 -1.71235 25.8
    endloop
  endfacet
  facet normal -1 1.83697e-16 0
    outer loop
      vertex -0.3 2.25 20.4
      vertex -0.3 -1.71235 25.8
      vertex -0.3 2.25 21.3071
    endloop
  endfacet
  facet normal -1.83697e-16 -1 0
    outer loop
      vertex -0.3 -2.25 21
      vertex -0.3 -2.25 20.4
      vertex 0.3 -2.25 20.4
    endloop
  endfacet
  facet normal -1.83697e-16 -1 0
    outer loop
      vertex 0.3 -2.25 21
      vertex -0.3 -2.25 21
      vertex 0.3 -2.25 20.4
    endloop
  endfacet
  facet normal 1 -1.83697e-16 0
    outer loop
      vertex 0.3 -2.25 21
      vertex 0.3 -2.25 20.4
      vertex 0.3 2.25 20.4
    endloop
  endfacet
  facet normal 1 -1.83697e-16 0
    outer loop
      vertex 0.3 1.72085 21
      vertex 0.3 -2.25 21
      vertex 0.3 2.25 20.4
    endloop
  endfacet
  facet normal 1 -1.83697e-16 0
    outer loop
      vertex 0.3 2.25 26.4
      vertex 0.3 -1.71235 25.8
      vertex 0.3 2.25 25.8
    endloop
  endfacet
  facet normal 1 -1.83697e-16 0
    outer loop
      vertex 0.3 -2.25 26.4
      vertex 0.3 -1.71235 25.8
      vertex 0.3 2.25 26.4
    endloop
  endfacet
  facet normal 1 -1.83697e-16 0
    outer loop
      vertex 0.3 -2.25 26.4
      vertex 0.3 -2.25 25.5025
      vertex 0.3 -1.71235 25.8
    endloop
  endfacet
  facet normal 1 -1.83697e-16 0
    outer loop
      vertex 0.3 2.25 21.3071
      vertex 0.3 1.72085 21
      vertex 0.3 2.25 20.4
    endloop
  endfacet
  facet normal 1 -1.83697e-16 0
    outer loop
      vertex 0.3 -2.25 25.5025
      vertex 0.3 2.25 21.3071
      vertex 0.3 -1.71235 25.8
    endloop
  endfacet
  facet normal 1 -1.83697e-16 0
    outer loop
      vertex 0.3 -2.25 25.5025
      vertex 0.3 1.72085 21
      vertex 0.3 2.25 21.3071
    endloop
  endfacet
  facet normal 1.83697e-16 1 0
    outer loop
      vertex -0.3 2.25 20.4
      vertex -0.3 2.25 21.3071
      vertex 0.3 2.25 20.4
    endloop
  endfacet
  facet normal 1.83697e-16 1 0
    outer loop
      vertex 0.3 2.25 20.4
      vertex -0.3 2.25 21.3071
      vertex 0.3 2.25 21.3071
    endloop
  endfacet
  facet normal 1.37773e-16 0.75 0.661438
    outer loop
      vertex -0.3 -1.71235 25.8
      vertex 0.3 -1.71235 25.8
      vertex -0.3 2.25 21.3071
    endloop
  endfacet
  facet normal 1.37773e-16 0.75 0.661438
    outer loop
      vertex -0.3 2.25 21.3071
      vertex 0.3 -1.71235 25.8
      vertex 0.3 2.25 21.3071
    endloop
  endfacet
  facet normal 0 0 -1
    outer loop
      vertex -0.3 -1.71235 25.8
      vertex -0.3 2.25 25.8
      vertex 0.3 -1.71235 25.8
    endloop
  endfacet
  facet normal 0 0 -1
    outer loop
      vertex 0.3 -1.71235 25.8
      vertex -0.3 2.25 25.8
      vertex 0.3 2.25 25.8
    endloop
  endfacet
  facet normal 1.83697e-16 1 0
    outer loop
      vertex -0.3 2.25 25.8
      vertex -0.3 2.25 26.4
      vertex 0.3 2.25 25.8
    endloop
  endfacet
  facet normal 1.83697e-16 1 0
    outer loop
      vertex 0.3 2.25 25.8
      vertex -0.3 2.25 26.4
      vertex 0.3 2.25 26.4
    endloop
  endfacet
  facet normal 0 0 1
    outer loop
      vertex -0.3 2.25 26.4
      vertex -0.3 -2.25 26.4
      vertex 0.3 -2.25 26.4
    endloop
  endfacet
  facet normal 0 0 1
    outer loop
      vertex 0.3 2.25 26.4
      vertex -0.3 2.25 26.4
      vertex 0.3 -2.25 26.4
    endloop
  endfacet
  facet normal -1.83697e-16 -1 0
    outer loop
      vertex -0.3 -2.25 26.4
      vertex -0.3 -2.25 25.5025
      vertex 0.3 -2.25 25.5025
    endloop
  endfacet
  facet normal -1.83697e-16 -1 0
    outer loop
      vertex 0.3 -2.25 26.4
      vertex -0.3 -2.25 26.4
      vertex 0.3 -2.25 25.5025
    endloop
  endfacet
  facet normal -1.37773e-16 -0.75 -0.661438
    outer loop
      vertex 0.3 -2.25 25.5025
      vertex -0.3 -2.25 25.5025
      vertex -0.3 1.72085 21
    endloop
  endfacet
  facet normal -1.37773e-16 -0.75 -0.661438
    outer loop
      vertex 0.3 1.72085 21
      vertex 0.3 -2.25 25.5025
      vertex -0.3 1.72085 21
    endloop
  endfacet
  facet normal 0 0 1
    outer loop
      vertex -0.3 1.72085 21
      vertex -0.3 -2.25 21
      vertex 0.3 -2.25 21
    endloop
  endfacet
  facet normal 0 0 1
    outer loop
      vertex 0.3 1.72085 21
      vertex -0.3 1.72085 21
      vertex 0.3 -2.25 21
    endloop
  endfacet
  facet normal -6.12323e-17 -1 6.12323e-17
    outer loop
      vertex 13.2 -2.25 0.3
      vertex 13.2 -2.25 -0.3
      vertex 14.1023 -2.25 -0.3
    endloop
  endfacet
  facet normal -6.12323e-17 -1 6.12323e-17
    outer loop
      vertex 14.1023 -2.25 0.3
      vertex 13.2 -2.25 0.3
      vertex 14.1023 -2.25 -0.3
    endloop
  endfacet
  facet normal 0 -6.12323e-17 -1
    outer loop
      vertex 13.2 -2.25 -0.3
      vertex 13.2 -2.24575 -0.3
      vertex 14.1023 -2.25 -0.3
    endloop
  endfacet
  facet normal 0 -6.12323e-17 -1
    outer loop
      vertex 14.1023 -2.25 -0.3
      vertex 13.2 -2.24575 -0.3
      vertex 15.7464 -1.74294e-16 -0.3
    endloop
  endfacet
  facet normal 0 -6.12323e-17 -1
    outer loop
      vertex 15.7464 -1.74294e-16 -0.3
      vertex 13.2 2.24575 -0.3
      vertex 13.2 2.25 -0.3
    endloop
  endfacet
  facet normal 0 -6.12323e-17 -1
    outer loop
      vertex 15.7464 -1.74294e-16 -0.3
      vertex 13.2 2.25 -0.3
      vertex 14.1023 2.25 -0.3
    endloop
  endfacet
  facet normal 0 -6.12323e-17 -1
    outer loop
      vertex 15.7464 -1.74294e-16 -0.3
      vertex 14.1023 2.25 -0.3
      vertex 16.2 0.4 -0.3
    endloop
  endfacet
  facet normal 0 -6.12323e-17 -1
    outer loop
      vertex 15.7464 -1.74294e-16 -0.3
      vertex 16.2 0.4 -0.3
      vertex 14.1023 -2.25 -0.3
    endloop
  endfacet
  facet normal 0 -6.12323e-17 -1
    outer loop
      vertex 16.2 0.4 -0.3
      vertex 18.2977 2.25 -0.3
      vertex 14.1023 -2.25 -0.3
    endloop
  endfacet
  facet normal 0 -6.12323e-17 -1
    outer loop
      vertex 14.1023 -2.25 -0.3
      vertex 18.2977 2.25 -0.3
      vertex 19.2 2.25 -0.3
    endloop
  endfacet
  facet normal 0 -6.12323e-17 -1
    outer loop
      vertex 16.6536 -2.29839e-16 -0.3
      vertex 19.2 2.25 -0.3
      vertex 19.2 2.24575 -0.3
    endloop
  endfacet
  facet normal 0 -6.12323e-17 -1
    outer loop
      vertex 14.1023 -2.25 -0.3
      vertex 19.2 2.25 -0.3
      vertex 16.2 -0.4 -0.3
    endloop
  endfacet
  facet normal 0 -6.12323e-17 -1
    outer loop
      vertex 18.2977 -2.25 -0.3
      vertex 19.2 -2.24575 -0.3
      vertex 19.2 -2.25 -0.3
    endloop
  endfacet
  facet normal 0 -6.12323e-17 -1
    outer loop
      vertex 16.6536 -2.29839e-16 -0.3
      vertex 19.2 -2.24575 -0.3
      vertex 16.2 -0.4 -0.3
    endloop
  endfacet
  facet normal 0 -6.12323e-17 -1
    outer loop
      vertex 16.6536 -2.29839e-16 -0.3
      vertex 16.2 -0.4 -0.3
      vertex 19.2 2.25 -0.3
    endloop
  endfacet
  facet normal 0 -6.12323e-17 -1
    outer loop
      vertex 16.2 -0.4 -0.3
      vertex 19.2 -2.24575 -0.3
      vertex 18.2977 -2.25 -0.3
    endloop
  endfacet
  facet normal -1 6.12323e-17 -3.7494e-33
    outer loop
      vertex 13.2 -2.25 -0.3
      vertex 13.2 -2.25 0.3
      vertex 13.2 -2.24575 -0.3
    endloop
  endfacet
  facet normal -1 6.12323e-17 -3.7494e-33
    outer loop
      vertex 13.2 -2.24575 -0.3
      vertex 13.2 -2.25 0.3
      vertex 13.2 -2.24575 0.3
    endloop
  endfacet
  facet normal 0 6.12323e-17 1
    outer loop
      vertex 13.2 -2.24575 0.3
      vertex 13.2 -2.25 0.3
      vertex 14.1023 -2.25 0.3
    endloop
  endfacet
  facet normal 0 6.12323e-17 1
    outer loop
      vertex 16.6536 -1.931e-16 0.3
      vertex 13.2 -2.24575 0.3
      vertex 16.2 -0.4 0.3
    endloop
  endfacet
  facet normal 0 6.12323e-17 1
    outer loop
      vertex 16.2 -0.4 0.3
      vertex 13.2 -2.24575 0.3
      vertex 14.1023 -2.25 0.3
    endloop
  endfacet
  facet normal 0 6.12323e-17 1
    outer loop
      vertex 19.2 -2.25 0.3
      vertex 16.2 -0.4 0.3
      vertex 18.2977 -2.25 0.3
    endloop
  endfacet
  facet normal 0 6.12323e-17 1
    outer loop
      vertex 19.2 -2.24575 0.3
      vertex 16.2 -0.4 0.3
      vertex 19.2 -2.25 0.3
    endloop
  endfacet
  facet normal 0 6.12323e-17 1
    outer loop
      vertex 16.6536 -1.931e-16 0.3
      vertex 16.2 -0.4 0.3
      vertex 19.2 -2.24575 0.3
    endloop
  endfacet
  facet normal 0 6.12323e-17 1
    outer loop
      vertex 19.2 2.24575 0.3
      vertex 13.2 -2.24575 0.3
      vertex 16.6536 -1.931e-16 0.3
    endloop
  endfacet
  facet normal 0 6.12323e-17 1
    outer loop
      vertex 19.2 2.25 0.3
      vertex 13.2 -2.24575 0.3
      vertex 19.2 2.24575 0.3
    endloop
  endfacet
  facet normal 0 6.12323e-17 1
    outer loop
      vertex 16.2 0.4 0.3
      vertex 15.7464 -1.37555e-16 0.3
      vertex 19.2 2.25 0.3
    endloop
  endfacet
  facet normal 0 6.12323e-17 1
    outer loop
      vertex 15.7464 -1.37555e-16 0.3
      vertex 13.2 -2.24575 0.3
      vertex 19.2 2.25 0.3
    endloop
  endfacet
  facet normal 0 6.12323e-17 1
    outer loop
      vertex 18.2977 2.25 0.3
      vertex 16.2 0.4 0.3
      vertex 19.2 2.25 0.3
    endloop
  endfacet
  facet normal 0 6.12323e-17 1
    outer loop
      vertex 14.1023 2.25 0.3
      vertex 13.2 2.25 0.3
      vertex 13.2 2.24575 0.3
    endloop
  endfacet
  facet normal 0 6.12323e-17 1
    outer loop
      vertex 14.1023 2.25 0.3
      vertex 15.7464 -1.37555e-16 0.3
      vertex 16.2 0.4 0.3
    endloop
  endfacet
  facet normal 0 6.12323e-17 1
    outer loop
      vertex 13.2 2.24575 0.3
      vertex 15.7464 -1.37555e-16 0.3
      vertex 14.1023 2.25 0.3
    endloop
  endfacet
  facet normal 0.661438 -0.75 4.59243e-17
    outer loop
      vertex 14.1023 -2.25 0.3
      vertex 14.1023 -2.25 -0.3
      vertex 16.2 -0.4 -0.3
    endloop
  endfacet
  facet normal 0.661438 -0.75 4.59243e-17
    outer loop
      vertex 16.2 -0.4 0.3
      vertex 14.1023 -2.25 0.3
      vertex 16.2 -0.4 -0.3
    endloop
  endfacet
  facet normal -0.661438 -0.75 4.59243e-17
    outer loop
      vertex 16.2 -0.4 0.3
      vertex 16.2 -0.4 -0.3
      vertex 18.2977 -2.25 -0.3
    endloop
  endfacet
  facet normal -0.661438 -0.75 4.59243e-17
    outer loop
      vertex 18.2977 -2.25 0.3
      vertex 16.2 -0.4 0.3
      vertex 18.2977 -2.25 -0.3
    endloop
  endfacet
  facet normal -6.12323e-17 -1 6.12323e-17
    outer loop
      vertex 18.2977 -2.25 0.3
      vertex 18.2977 -2.25 -0.3
      vertex 19.2 -2.25 -0.3
    endloop
  endfacet
  facet normal -6.12323e-17 -1 6.12323e-17
    outer loop
      vertex 19.2 -2.25 0.3
      vertex 18.2977 -2.25 0.3
      vertex 19.2 -2.25 -0.3
    endloop
  endfacet
  facet normal 1 -6.12323e-17 3.7494e-33
    outer loop
      vertex 19.2 -2.25 0.3
      vertex 19.2 -2.25 -0.3
      vertex 19.2 -2.24575 -0.3
    endloop
  endfacet
  facet normal 1 -6.12323e-17 3.7494e-33
    outer loop
      vertex 19.2 -2.24575 0.3
      vertex 19.2 -2.25 0.3
      vertex 19.2 -2.24575 -0.3
    endloop
  endfacet
  facet normal 0.661438 0.75 -4.59243e-17
    outer loop
      vertex 16.6536 -2.29839e-16 -0.3
      vertex 16.6536 -1.931e-16 0.3
      vertex 19.2 -2.24575 -0.3
    endloop
  endfacet
  facet normal 0.661438 0.75 -4.59243e-17
    outer loop
      vertex 19.2 -2.24575 -0.3
      vertex 16.6536 -1.931e-16 0.3
      vertex 19.2 -2.24575 0.3
    endloop
  endfacet
  facet normal 0.661438 -0.75 4.59243e-17
    outer loop
      vertex 16.6536 -1.931e-16 0.3
      vertex 16.6536 -2.29839e-16 -0.3
      vertex 19.2 2.24575 -0.3
    endloop
  endfacet
  facet normal 0.661438 -0.75 4.59243e-17
    outer loop
      vertex 19.2 2.24575 0.3
      vertex 16.6536 -1.931e-16 0.3
      vertex 19.2 2.24575 -0.3
    endloop
  endfacet
  facet normal 1 -6.12323e-17 3.7494e-33
    outer loop
      vertex 19.2 2.24575 0.3
      vertex 19.2 2.24575 -0.3
      vertex 19.2 2.25 -0.3
    endloop
  endfacet
  facet normal 1 -6.12323e-17 3.7494e-33
    outer loop
      vertex 19.2 2.25 0.3
      vertex 19.2 2.24575 0.3
      vertex 19.2 2.25 -0.3
    endloop
  endfacet
  facet normal 6.12323e-17 1 -6.12323e-17
    outer loop
      vertex 18.2977 2.25 -0.3
      vertex 18.2977 2.25 0.3
      vertex 19.2 2.25 -0.3
    endloop
  endfacet
  facet normal 6.12323e-17 1 -6.12323e-17
    outer loop
      vertex 19.2 2.25 -0.3
      vertex 18.2977 2.25 0.3
      vertex 19.2 2.25 0.3
    endloop
  endfacet
  facet normal -0.661438 0.75 -4.59243e-17
    outer loop
      vertex 16.2 0.4 -0.3
      vertex 16.2 0.4 0.3
      vertex 18.2977 2.25 -0.3
    endloop
  endfacet
  facet normal -0.661438 0.75 -4.59243e-17
    outer loop
      vertex 18.2977 2.25 -0.3
      vertex 16.2 0.4 0.3
      vertex 18.2977 2.25 0.3
    endloop
  endfacet
  facet normal 0.661438 0.75 -4.59243e-17
    outer loop
      vertex 14.1023 2.25 -0.3
      vertex 14.1023 2.25 0.3
      vertex 16.2 0.4 -0.3
    endloop
  endfacet
  facet normal 0.661438 0.75 -4.59243e-17
    outer loop
      vertex 16.2 0.4 -0.3
      vertex 14.1023 2.25 0.3
      vertex 16.2 0.4 0.3
    endloop
  endfacet
  facet normal 6.12323e-17 1 -6.12323e-17
    outer loop
      vertex 13.2 2.25 -0.3
      vertex 13.2 2.25 0.3
      vertex 14.1023 2.25 -0.3
    endloop
  endfacet
  facet normal 6.12323e-17 1 -6.12323e-17
    outer loop
      vertex 14.1023 2.25 -0.3
      vertex 13.2 2.25 0.3
      vertex 14.1023 2.25 0.3
    endloop
  endfacet
  facet normal -1 6.12323e-17 -3.7494e-33
    outer loop
      vertex 13.2 2.24575 -0.3
      vertex 13.2 2.24575 0.3
      vertex 13.2 2.25 -0.3
    endloop
  endfacet
  facet normal -1 6.12323e-17 -3.7494e-33
    outer loop
      vertex 13.2 2.25 -0.3
      vertex 13.2 2.24575 0.3
      vertex 13.2 2.25 0.3
    endloop
  endfacet
  facet normal -0.661438 -0.75 4.59243e-17
    outer loop
      vertex 13.2 2.24575 0.3
      vertex 13.2 2.24575 -0.3
      vertex 15.7464 -1.74294e-16 -0.3
    endloop
  endfacet
  facet normal -0.661438 -0.75 4.59243e-17
    outer loop
      vertex 15.7464 -1.37555e-16 0.3
      vertex 13.2 2.24575 0.3
      vertex 15.7464 -1.74294e-16 -0.3
    endloop
  endfacet
  facet normal -0.661438 0.75 -4.59243e-17
    outer loop
      vertex 13.2 -2.24575 -0.3
      vertex 13.2 -2.24575 0.3
      vertex 15.7464 -1.74294e-16 -0.3
    endloop
  endfacet
  facet normal -0.661438 0.75 -4.59243e-17
    outer loop
      vertex 15.7464 -1.74294e-16 -0.3
      vertex 13.2 -2.24575 0.3
      vertex 15.7464 -1.37555e-16 0.3
    endloop
  endfacet
  facet normal -6.12323e-17 0 1
    outer loop
      vertex 20.4 0.3 2.25
      vertex 20.4 -0.3 2.25
      vertex 21.3023 -0.3 2.25
    endloop
  endfacet
  facet normal -6.12323e-17 0 1
    outer loop
      vertex 21.3023 0.3 2.25
      vertex 20.4 0.3 2.25
      vertex 21.3023 -0.3 2.25
    endloop
  endfacet
  facet normal 0 -1 0
    outer loop
      vertex 21.3023 -0.3 2.25
      vertex 20.4 -0.3 2.25
      vertex 20.4 -0.3 2.24575
    endloop
  endfacet
  facet normal 0 -1 0
    outer loop
      vertex 23.4 -0.3 -0.4
      vertex 21.3023 -0.3 2.25
      vertex 22.9464 -0.3 1.55925e-16
    endloop
  endfacet
  facet normal 0 -1 0
    outer loop
      vertex 22.9464 -0.3 1.55925e-16
      vertex 21.3023 -0.3 2.25
      vertex 20.4 -0.3 2.24575
    endloop
  endfacet
  facet normal 0 -1 0
    outer loop
      vertex 20.4 -0.3 -2.25
      vertex 22.9464 -0.3 1.55925e-16
      vertex 20.4 -0.3 -2.24575
    endloop
  endfacet
  facet normal 0 -1 0
    outer loop
      vertex 21.3023 -0.3 -2.25
      vertex 22.9464 -0.3 1.55925e-16
      vertex 20.4 -0.3 -2.25
    endloop
  endfacet
  facet normal 0 -1 0
    outer loop
      vertex 23.4 -0.3 -0.4
      vertex 22.9464 -0.3 1.55925e-16
      vertex 21.3023 -0.3 -2.25
    endloop
  endfacet
  facet normal 0 -1 0
    outer loop
      vertex 25.4977 -0.3 -2.25
      vertex 21.3023 -0.3 2.25
      vertex 23.4 -0.3 -0.4
    endloop
  endfacet
  facet normal 0 -1 0
    outer loop
      vertex 26.4 -0.3 -2.25
      vertex 21.3023 -0.3 2.25
      vertex 25.4977 -0.3 -2.25
    endloop
  endfacet
  facet normal 0 -1 0
    outer loop
      vertex 23.8536 -0.3 2.11469e-16
      vertex 23.4 -0.3 0.4
      vertex 26.4 -0.3 -2.25
    endloop
  endfacet
  facet normal 0 -1 0
    outer loop
      vertex 23.4 -0.3 0.4
      vertex 21.3023 -0.3 2.25
      vertex 26.4 -0.3 -2.25
    endloop
  endfacet
  facet normal 0 -1 0
    outer loop
      vertex 26.4 -0.3 -2.24575
      vertex 23.8536 -0.3 2.11469e-16
      vertex 26.4 -0.3 -2.25
    endloop
  endfacet
  facet normal 0 -1 0
    outer loop
      vertex 26.4 -0.3 2.24575
      vertex 26.4 -0.3 2.25
      vertex 25.4977 -0.3 2.25
    endloop
  endfacet
  facet normal 0 -1 0
    outer loop
      vertex 26.4 -0.3 2.24575
      vertex 23.4 -0.3 0.4
      vertex 23.8536 -0.3 2.11469e-16
    endloop
  endfacet
  facet normal 0 -1 0
    outer loop
      vertex 25.4977 -0.3 2.25
      vertex 23.4 -0.3 0.4
      vertex 26.4 -0.3 2.24575
    endloop
  endfacet
  facet normal -1 0 -6.12323e-17
    outer loop
      vertex 20.4 -0.3 2.25
      vertex 20.4 0.3 2.25
      vertex 20.4 -0.3 2.24575
    endloop
  endfacet
  facet normal -1 0 -6.12323e-17
    outer loop
      vertex 20.4 -0.3 2.24575
      vertex 20.4 0.3 2.25
      vertex 20.4 0.3 2.24575
    endloop
  endfacet
  facet normal 0 1 0
    outer loop
      vertex 20.4 0.3 2.25
      vertex 21.3023 0.3 2.25
      vertex 20.4 0.3 2.24575
    endloop
  endfacet
  facet normal 0 1 0
    outer loop
      vertex 20.4 0.3 2.24575
      vertex 21.3023 0.3 2.25
      vertex 23.4 0.3 0.4
    endloop
  endfacet
  facet normal 0 1 0
    outer loop
      vertex 23.4 0.3 0.4
      vertex 25.4977 0.3 2.25
      vertex 26.4 0.3 2.25
    endloop
  endfacet
  facet normal 0 1 0
    outer loop
      vertex 23.4 0.3 0.4
      vertex 26.4 0.3 2.25
      vertex 26.4 0.3 2.24575
    endloop
  endfacet
  facet normal 0 1 0
    outer loop
      vertex 23.4 0.3 0.4
      vertex 26.4 0.3 2.24575
      vertex 23.8536 0.3 2.11469e-16
    endloop
  endfacet
  facet normal 0 1 0
    outer loop
      vertex 23.4 0.3 0.4
      vertex 23.8536 0.3 2.11469e-16
      vertex 20.4 0.3 2.24575
    endloop
  endfacet
  facet normal 0 1 0
    outer loop
      vertex 23.8536 0.3 2.11469e-16
      vertex 26.4 0.3 -2.24575
      vertex 20.4 0.3 2.24575
    endloop
  endfacet
  facet normal 0 1 0
    outer loop
      vertex 20.4 0.3 2.24575
      vertex 26.4 0.3 -2.24575
      vertex 26.4 0.3 -2.25
    endloop
  endfacet
  facet normal 0 1 0
    outer loop
      vertex 23.4 0.3 -0.4
      vertex 26.4 0.3 -2.25
      vertex 25.4977 0.3 -2.25
    endloop
  endfacet
  facet normal 0 1 0
    outer loop
      vertex 20.4 0.3 2.24575
      vertex 26.4 0.3 -2.25
      vertex 22.9464 0.3 1.55925e-16
    endloop
  endfacet
  facet normal 0 1 0
    outer loop
      vertex 20.4 0.3 -2.24575
      vertex 21.3023 0.3 -2.25
      vertex 20.4 0.3 -2.25
    endloop
  endfacet
  facet normal 0 1 0
    outer loop
      vertex 23.4 0.3 -0.4
      vertex 21.3023 0.3 -2.25
      vertex 22.9464 0.3 1.55925e-16
    endloop
  endfacet
  facet normal 0 1 0
    outer loop
      vertex 23.4 0.3 -0.4
      vertex 22.9464 0.3 1.55925e-16
      vertex 26.4 0.3 -2.25
    endloop
  endfacet
  facet normal 0 1 0
    outer loop
      vertex 22.9464 0.3 1.55925e-16
      vertex 21.3023 0.3 -2.25
      vertex 20.4 0.3 -2.24575
    endloop
  endfacet
  facet normal 0.661438 0 0.75
    outer loop
      vertex 21.3023 0.3 2.25
      vertex 21.3023 -0.3 2.25
      vertex 23.4 -0.3 0.4
    endloop
  endfacet
  facet normal 0.661438 0 0.75
    outer loop
      vertex 23.4 0.3 0.4
      vertex 21.3023 0.3 2.25
      vertex 23.4 -0.3 0.4
    endloop
  endfacet
  facet normal -0.661438 0 0.75
    outer loop
      vertex 23.4 0.3 0.4
      vertex 23.4 -0.3 0.4
      vertex 25.4977 -0.3 2.25
    endloop
  endfacet
  facet normal -0.661438 0 0.75
    outer loop
      vertex 25.4977 0.3 2.25
      vertex 23.4 0.3 0.4
      vertex 25.4977 -0.3 2.25
    endloop
  endfacet
  facet normal -6.12323e-17 0 1
    outer loop
      vertex 25.4977 0.3 2.25
      vertex 25.4977 -0.3 2.25
      vertex 26.4 -0.3 2.25
    endloop
  endfacet
  facet normal -6.12323e-17 0 1
    outer loop
      vertex 26.4 0.3 2.25
      vertex 25.4977 0.3 2.25
      vertex 26.4 -0.3 2.25
    endloop
  endfacet
  facet normal 1 0 6.12323e-17
    outer loop
      vertex 26.4 0.3 2.25
      vertex 26.4 -0.3 2.25
      vertex 26.4 -0.3 2.24575
    endloop
  endfacet
  facet normal 1 0 6.12323e-17
    outer loop
      vertex 26.4 0.3 2.24575
      vertex 26.4 0.3 2.25
      vertex 26.4 -0.3 2.24575
    endloop
  endfacet
  facet normal 0.661438 0 -0.75
    outer loop
      vertex 23.8536 -0.3 2.11469e-16
      vertex 23.8536 0.3 2.11469e-16
      vertex 26.4 -0.3 2.24575
    endloop
  endfacet
  facet normal 0.661438 0 -0.75
    outer loop
      vertex 26.4 -0.3 2.24575
      vertex 23.8536 0.3 2.11469e-16
      vertex 26.4 0.3 2.24575
    endloop
  endfacet
  facet normal 0.661438 0 0.75
    outer loop
      vertex 23.8536 0.3 2.11469e-16
      vertex 23.8536 -0.3 2.11469e-16
      vertex 26.4 -0.3 -2.24575
    endloop
  endfacet
  facet normal 0.661438 0 0.75
    outer loop
      vertex 26.4 0.3 -2.24575
      vertex 23.8536 0.3 2.11469e-16
      vertex 26.4 -0.3 -2.24575
    endloop
  endfacet
  facet normal 1 0 6.12323e-17
    outer loop
      vertex 26.4 0.3 -2.24575
      vertex 26.4 -0.3 -2.24575
      vertex 26.4 -0.3 -2.25
    endloop
  endfacet
  facet normal 1 0 6.12323e-17
    outer loop
      vertex 26.4 0.3 -2.25
      vertex 26.4 0.3 -2.24575
      vertex 26.4 -0.3 -2.25
    endloop
  endfacet
  facet normal 6.12323e-17 0 -1
    outer loop
      vertex 25.4977 -0.3 -2.25
      vertex 25.4977 0.3 -2.25
      vertex 26.4 -0.3 -2.25
    endloop
  endfacet
  facet normal 6.12323e-17 0 -1
    outer loop
      vertex 26.4 -0.3 -2.25
      vertex 25.4977 0.3 -2.25
      vertex 26.4 0.3 -2.25
    endloop
  endfacet
  facet normal -0.661438 0 -0.75
    outer loop
      vertex 23.4 -0.3 -0.4
      vertex 23.4 0.3 -0.4
      vertex 25.4977 -0.3 -2.25
    endloop
  endfacet
  facet normal -0.661438 0 -0.75
    outer loop
      vertex 25.4977 -0.3 -2.25
      vertex 23.4 0.3 -0.4
      vertex 25.4977 0.3 -2.25
    endloop
  endfacet
  facet normal 0.661438 0 -0.75
    outer loop
      vertex 21.3023 -0.3 -2.25
      vertex 21.3023 0.3 -2.25
      vertex 23.4 -0.3 -0.4
    endloop
  endfacet
  facet normal 0.661438 0 -0.75
    outer loop
      vertex 23.4 -0.3 -0.4
      vertex 21.3023 0.3 -2.25
      vertex 23.4 0.3 -0.4
    endloop
  endfacet
  facet normal 6.12323e-17 0 -1
    outer loop
      vertex 20.4 -0.3 -2.25
      vertex 20.4 0.3 -2.25
      vertex 21.3023 -0.3 -2.25
    endloop
  endfacet
  facet normal 6.12323e-17 0 -1
    outer loop
      vertex 21.3023 -0.3 -2.25
      vertex 20.4 0.3 -2.25
      vertex 21.3023 0.3 -2.25
    endloop
  endfacet
  facet normal -1 0 -6.12323e-17
    outer loop
      vertex 20.4 -0.3 -2.24575
      vertex 20.4 0.3 -2.24575
      vertex 20.4 -0.3 -2.25
    endloop
  endfacet
  facet normal -1 0 -6.12323e-17
    outer loop
      vertex 20.4 -0.3 -2.25
      vertex 20.4 0.3 -2.24575
      vertex 20.4 0.3 -2.25
    endloop
  endfacet
  facet normal -0.661438 0 0.75
    outer loop
      vertex 20.4 0.3 -2.24575
      vertex 20.4 -0.3 -2.24575
      vertex 22.9464 -0.3 1.55925e-16
    endloop
  endfacet
  facet normal -0.661438 0 0.75
    outer loop
      vertex 22.9464 0.3 1.55925e-16
      vertex 20.4 0.3 -2.24575
      vertex 22.9464 -0.3 1.55925e-16
    endloop
  endfacet
  facet normal -0.661438 0 -0.75
    outer loop
      vertex 20.4 -0.3 2.24575
      vertex 20.4 0.3 2.24575
      vertex 22.9464 -0.3 1.55925e-16
    endloop
  endfacet
  facet normal -0.661438 0 -0.75
    outer loop
      vertex 22.9464 -0.3 1.55925e-16
      vertex 20.4 0.3 2.24575
      vertex 22.9464 0.3 1.55925e-16
    endloop
  endfacet
  facet normal -1 0 0
    outer loop
      vertex -2.25 18.5221 0.3
      vertex -2.25 19.2 0.3
      vertex -2.25 18.5221 -0.3
    endloop
  endfacet
  facet normal -1 0 0
    outer loop
      vertex -2.25 18.5221 -0.3
      vertex -2.25 19.2 0.3
      vertex -2.25 19.2 -0.3
    endloop
  endfacet
  facet normal 0 -6.12323e-17 1
    outer loop
      vertex -2.25 19.2 0.3
      vertex -2.25 18.5221 0.3
      vertex -0.3 16.311 0.3
    endloop
  endfacet
  facet normal 0 -6.12323e-17 1
    outer loop
      vertex 0.3 16.311 0.3
      vertex -2.25 19.2 0.3
      vertex -0.3 16.311 0.3
    endloop
  endfacet
  facet normal 0 -6.12323e-17 1
    outer loop
      vertex -0.3 13.2 0.3
      vertex 0.3 13.2 0.3
      vertex -0.3 16.311 0.3
    endloop
  endfacet
  facet normal 0 -6.12323e-17 1
    outer loop
      vertex 0.3 13.2 0.3
      vertex 0.3 16.311 0.3
      vertex -0.3 16.311 0.3
    endloop
  endfacet
  facet normal 0 -6.12323e-17 1
    outer loop
      vertex 2.25 18.5221 0.3
      vertex 2.25 19.2 0.3
      vertex 2.04788 19.2 0.3
    endloop
  endfacet
  facet normal 0 -6.12323e-17 1
    outer loop
      vertex 0.3 16.311 0.3
      vertex -4.996e-17 16.8779 0.3
      vertex -2.25 19.2 0.3
    endloop
  endfacet
  facet normal 0 -6.12323e-17 1
    outer loop
      vertex 0.3 16.311 0.3
      vertex 2.25 18.5221 0.3
      vertex -4.996e-17 16.8779 0.3
    endloop
  endfacet
  facet normal 0 -6.12323e-17 1
    outer loop
      vertex -4.996e-17 16.8779 0.3
      vertex -2.04788 19.2 0.3
      vertex -2.25 19.2 0.3
    endloop
  endfacet
  facet normal 0 -6.12323e-17 1
    outer loop
      vertex 2.04788 19.2 0.3
      vertex -4.996e-17 16.8779 0.3
      vertex 2.25 18.5221 0.3
    endloop
  endfacet
  facet normal -0.75 -0.661438 -4.05014e-17
    outer loop
      vertex -2.25 18.5221 0.3
      vertex -2.25 18.5221 -0.3
      vertex -0.3 16.311 0.3
    endloop
  endfacet
  facet normal -0.75 -0.661438 -4.05014e-17
    outer loop
      vertex -0.3 16.311 0.3
      vertex -2.25 18.5221 -0.3
      vertex -0.3 16.311 -0.3
    endloop
  endfacet
  facet normal 0 6.12323e-17 -1
    outer loop
      vertex -2.25 18.5221 -0.3
      vertex -2.25 19.2 -0.3
      vertex -0.3 16.311 -0.3
    endloop
  endfacet
  facet normal 0 6.12323e-17 -1
    outer loop
      vertex -0.3 16.311 -0.3
      vertex -2.25 19.2 -0.3
      vertex -2.04788 19.2 -0.3
    endloop
  endfacet
  facet normal 0 6.12323e-17 -1
    outer loop
      vertex -0.3 16.311 -0.3
      vertex -2.04788 19.2 -0.3
      vertex -4.996e-17 16.8779 -0.3
    endloop
  endfacet
  facet normal 0 6.12323e-17 -1
    outer loop
      vertex -0.3 16.311 -0.3
      vertex -4.996e-17 16.8779 -0.3
      vertex 2.04788 19.2 -0.3
    endloop
  endfacet
  facet normal 0 6.12323e-17 -1
    outer loop
      vertex -0.3 16.311 -0.3
      vertex 2.04788 19.2 -0.3
      vertex 2.25 19.2 -0.3
    endloop
  endfacet
  facet normal 0 6.12323e-17 -1
    outer loop
      vertex -0.3 16.311 -0.3
      vertex 2.25 19.2 -0.3
      vertex 2.25 18.5221 -0.3
    endloop
  endfacet
  facet normal 0 6.12323e-17 -1
    outer loop
      vertex -0.3 16.311 -0.3
      vertex 2.25 18.5221 -0.3
      vertex 0.3 16.311 -0.3
    endloop
  endfacet
  facet normal 0 6.12323e-17 -1
    outer loop
      vertex -0.3 16.311 -0.3
      vertex 0.3 16.311 -0.3
      vertex 0.3 13.2 -0.3
    endloop
  endfacet
  facet normal 0 6.12323e-17 -1
    outer loop
      vertex -0.3 16.311 -0.3
      vertex 0.3 13.2 -0.3
      vertex -0.3 13.2 -0.3
    endloop
  endfacet
  facet normal 0 1 6.12323e-17
    outer loop
      vertex -2.25 19.2 0.3
      vertex -2.04788 19.2 0.3
      vertex -2.25 19.2 -0.3
    endloop
  endfacet
  facet normal 0 1 6.12323e-17
    outer loop
      vertex -2.25 19.2 -0.3
      vertex -2.04788 19.2 0.3
      vertex -2.04788 19.2 -0.3
    endloop
  endfacet
  facet normal 0.75 0.661438 4.05014e-17
    outer loop
      vertex -2.04788 19.2 -0.3
      vertex -2.04788 19.2 0.3
      vertex -4.996e-17 16.8779 0.3
    endloop
  endfacet
  facet normal 0.75 0.661438 4.05014e-17
    outer loop
      vertex -4.996e-17 16.8779 -0.3
      vertex -2.04788 19.2 -0.3
      vertex -4.996e-17 16.8779 0.3
    endloop
  endfacet
  facet normal -0.75 0.661438 4.05014e-17
    outer loop
      vertex -4.996e-17 16.8779 0.3
      vertex 2.04788 19.2 0.3
      vertex -4.996e-17 16.8779 -0.3
    endloop
  endfacet
  facet normal -0.75 0.661438 4.05014e-17
    outer loop
      vertex -4.996e-17 16.8779 -0.3
      vertex 2.04788 19.2 0.3
      vertex 2.04788 19.2 -0.3
    endloop
  endfacet
  facet normal 0 1 6.12323e-17
    outer loop
      vertex 2.04788 19.2 0.3
      vertex 2.25 19.2 0.3
      vertex 2.04788 19.2 -0.3
    endloop
  endfacet
  facet normal 0 1 6.12323e-17
    outer loop
      vertex 2.04788 19.2 -0.3
      vertex 2.25 19.2 0.3
      vertex 2.25 19.2 -0.3
    endloop
  endfacet
  facet normal 1 0 0
    outer loop
      vertex 2.25 19.2 0.3
      vertex 2.25 18.5221 0.3
      vertex 2.25 18.5221 -0.3
    endloop
  endfacet
  facet normal 1 0 0
    outer loop
      vertex 2.25 19.2 -0.3
      vertex 2.25 19.2 0.3
      vertex 2.25 18.5221 -0.3
    endloop
  endfacet
  facet normal 0.75 -0.661438 -4.05014e-17
    outer loop
      vertex 2.25 18.5221 0.3
      vertex 0.3 16.311 0.3
      vertex 0.3 16.311 -0.3
    endloop
  endfacet
  facet normal 0.75 -0.661438 -4.05014e-17
    outer loop
      vertex 2.25 18.5221 -0.3
      vertex 2.25 18.5221 0.3
      vertex 0.3 16.311 -0.3
    endloop
  endfacet
  facet normal 1 0 0
    outer loop
      vertex 0.3 16.311 0.3
      vertex 0.3 13.2 0.3
      vertex 0.3 13.2 -0.3
    endloop
  endfacet
  facet normal 1 0 0
    outer loop
      vertex 0.3 16.311 -0.3
      vertex 0.3 16.311 0.3
      vertex 0.3 13.2 -0.3
    endloop
  endfacet
  facet normal 0 -1 -6.12323e-17
    outer loop
      vertex 0.3 13.2 0.3
      vertex -0.3 13.2 0.3
      vertex -0.3 13.2 -0.3
    endloop
  endfacet
  facet normal 0 -1 -6.12323e-17
    outer loop
      vertex 0.3 13.2 -0.3
      vertex 0.3 13.2 0.3
      vertex -0.3 13.2 -0.3
    endloop
  endfacet
  facet normal -1 0 0
    outer loop
      vertex -0.3 13.2 0.3
      vertex -0.3 16.311 0.3
      vertex -0.3 13.2 -0.3
    endloop
  endfacet
  facet normal -1 0 0
    outer loop
      vertex -0.3 13.2 -0.3
      vertex -0.3 16.311 0.3
      vertex -0.3 16.311 -0.3
    endloop
  endfacet
  facet normal -6.12323e-17 0 1
    outer loop
      vertex -0.3 23.511 0.3
      vertex -0.3 20.4 0.3
      vertex 0.3 20.4 0.3
    endloop
  endfacet
  facet normal -6.12323e-17 0 1
    outer loop
      vertex 0.3 23.511 0.3
      vertex -0.3 23.511 0.3
      vertex 0.3 20.4 0.3
    endloop
  endfacet
  facet normal -6.12323e-17 -1 -3.7494e-33
    outer loop
      vertex 0.3 20.4 0.3
      vertex -0.3 20.4 0.3
      vertex -0.3 20.4 -0.3
    endloop
  endfacet
  facet normal -6.12323e-17 -1 -3.7494e-33
    outer loop
      vertex 0.3 20.4 -0.3
      vertex 0.3 20.4 0.3
      vertex -0.3 20.4 -0.3
    endloop
  endfacet
  facet normal -1 6.12323e-17 -6.12323e-17
    outer loop
      vertex -0.3 20.4 0.3
      vertex -0.3 23.511 0.3
      vertex -0.3 20.4 -0.3
    endloop
  endfacet
  facet normal -1 6.12323e-17 -6.12323e-17
    outer loop
      vertex -0.3 26.4 2.25
      vertex -0.3 23.511 0.3
      vertex -0.3 25.7221 2.25
    endloop
  endfacet
  facet normal -1 6.12323e-17 -6.12323e-17
    outer loop
      vertex -0.3 26.4 2.04788
      vertex -0.3 23.511 0.3
      vertex -0.3 26.4 2.25
    endloop
  endfacet
  facet normal -1 6.12323e-17 -6.12323e-17
    outer loop
      vertex -0.3 24.0779 3.15903e-17
      vertex -0.3 23.511 0.3
      vertex -0.3 26.4 2.04788
    endloop
  endfacet
  facet normal -1 6.12323e-17 -6.12323e-17
    outer loop
      vertex -0.3 20.4 -0.3
      vertex -0.3 23.511 0.3
      vertex -0.3 24.0779 3.15903e-17
    endloop
  endfacet
  facet normal -1 6.12323e-17 -6.12323e-17
    outer loop
      vertex -0.3 23.511 -0.3
      vertex -0.3 24.0779 3.15903e-17
      vertex -0.3 26.4 -2.04788
    endloop
  endfacet
  facet normal -1 6.12323e-17 -6.12323e-17
    outer loop
      vertex -0.3 20.4 -0.3
      vertex -0.3 24.0779 3.15903e-17
      vertex -0.3 23.511 -0.3
    endloop
  endfacet
  facet normal -1 6.12323e-17 -6.12323e-17
    outer loop
      vertex -0.3 23.511 -0.3
      vertex -0.3 26.4 -2.04788
      vertex -0.3 26.4 -2.25
    endloop
  endfacet
  facet normal -1 6.12323e-17 -6.12323e-17
    outer loop
      vertex -0.3 23.511 -0.3
      vertex -0.3 26.4 -2.25
      vertex -0.3 25.7221 -2.25
    endloop
  endfacet
  facet normal -8.64256e-17 -0.661438 0.75
    outer loop
      vertex -0.3 25.7221 2.25
      vertex -0.3 23.511 0.3
      vertex 0.3 23.511 0.3
    endloop
  endfacet
  facet normal -8.64256e-17 -0.661438 0.75
    outer loop
      vertex 0.3 25.7221 2.25
      vertex -0.3 25.7221 2.25
      vertex 0.3 23.511 0.3
    endloop
  endfacet
  facet normal 1 -6.12323e-17 6.12323e-17
    outer loop
      vertex 0.3 23.511 0.3
      vertex 0.3 20.4 0.3
      vertex 0.3 20.4 -0.3
    endloop
  endfacet
  facet normal 1 -6.12323e-17 6.12323e-17
    outer loop
      vertex 0.3 25.7221 -2.25
      vertex 0.3 23.511 0.3
      vertex 0.3 23.511 -0.3
    endloop
  endfacet
  facet normal 1 -6.12323e-17 6.12323e-17
    outer loop
      vertex 0.3 23.511 -0.3
      vertex 0.3 23.511 0.3
      vertex 0.3 20.4 -0.3
    endloop
  endfacet
  facet normal 1 -6.12323e-17 6.12323e-17
    outer loop
      vertex 0.3 26.4 -2.25
      vertex 0.3 23.511 0.3
      vertex 0.3 25.7221 -2.25
    endloop
  endfacet
  facet normal 1 -6.12323e-17 6.12323e-17
    outer loop
      vertex 0.3 26.4 -2.04788
      vertex 0.3 23.511 0.3
      vertex 0.3 26.4 -2.25
    endloop
  endfacet
  facet normal 1 -6.12323e-17 6.12323e-17
    outer loop
      vertex 0.3 24.0779 6.83297e-17
      vertex 0.3 23.511 0.3
      vertex 0.3 26.4 -2.04788
    endloop
  endfacet
  facet normal 1 -6.12323e-17 6.12323e-17
    outer loop
      vertex 0.3 26.4 2.04788
      vertex 0.3 23.511 0.3
      vertex 0.3 24.0779 6.83297e-17
    endloop
  endfacet
  facet normal 1 -6.12323e-17 6.12323e-17
    outer loop
      vertex 0.3 25.7221 2.25
      vertex 0.3 26.4 2.04788
      vertex 0.3 26.4 2.25
    endloop
  endfacet
  facet normal 1 -6.12323e-17 6.12323e-17
    outer loop
      vertex 0.3 25.7221 2.25
      vertex 0.3 23.511 0.3
      vertex 0.3 26.4 2.04788
    endloop
  endfacet
  facet normal 6.12323e-17 0 -1
    outer loop
      vertex -0.3 20.4 -0.3
      vertex -0.3 23.511 -0.3
      vertex 0.3 20.4 -0.3
    endloop
  endfacet
  facet normal 6.12323e-17 0 -1
    outer loop
      vertex 0.3 20.4 -0.3
      vertex -0.3 23.511 -0.3
      vertex 0.3 23.511 -0.3
    endloop
  endfacet
  facet normal 5.42287e-18 -0.661438 -0.75
    outer loop
      vertex -0.3 23.511 -0.3
      vertex -0.3 25.7221 -2.25
      vertex 0.3 23.511 -0.3
    endloop
  endfacet
  facet normal 5.42287e-18 -0.661438 -0.75
    outer loop
      vertex 0.3 23.511 -0.3
      vertex -0.3 25.7221 -2.25
      vertex 0.3 25.7221 -2.25
    endloop
  endfacet
  facet normal 6.12323e-17 0 -1
    outer loop
      vertex -0.3 25.7221 -2.25
      vertex -0.3 26.4 -2.25
      vertex 0.3 25.7221 -2.25
    endloop
  endfacet
  facet normal 6.12323e-17 0 -1
    outer loop
      vertex 0.3 25.7221 -2.25
      vertex -0.3 26.4 -2.25
      vertex 0.3 26.4 -2.25
    endloop
  endfacet
  facet normal 6.12323e-17 1 3.7494e-33
    outer loop
      vertex -0.3 26.4 -2.04788
      vertex 0.3 26.4 -2.04788
      vertex -0.3 26.4 -2.25
    endloop
  endfacet
  facet normal 6.12323e-17 1 3.7494e-33
    outer loop
      vertex -0.3 26.4 -2.25
      vertex 0.3 26.4 -2.04788
      vertex 0.3 26.4 -2.25
    endloop
  endfacet
  facet normal -5.42287e-18 0.661438 0.75
    outer loop
      vertex -0.3 26.4 -2.04788
      vertex -0.3 24.0779 3.15903e-17
      vertex 0.3 24.0779 6.83297e-17
    endloop
  endfacet
  facet normal -5.42287e-18 0.661438 0.75
    outer loop
      vertex 0.3 26.4 -2.04788
      vertex -0.3 26.4 -2.04788
      vertex 0.3 24.0779 6.83297e-17
    endloop
  endfacet
  facet normal 8.64256e-17 0.661438 -0.75
    outer loop
      vertex -0.3 24.0779 3.15903e-17
      vertex -0.3 26.4 2.04788
      vertex 0.3 24.0779 6.83297e-17
    endloop
  endfacet
  facet normal 8.64256e-17 0.661438 -0.75
    outer loop
      vertex 0.3 24.0779 6.83297e-17
      vertex -0.3 26.4 2.04788
      vertex 0.3 26.4 2.04788
    endloop
  endfacet
  facet normal 6.12323e-17 1 3.7494e-33
    outer loop
      vertex -0.3 26.4 2.25
      vertex 0.3 26.4 2.25
      vertex -0.3 26.4 2.04788
    endloop
  endfacet
  facet normal 6.12323e-17 1 3.7494e-33
    outer loop
      vertex -0.3 26.4 2.04788
      vertex 0.3 26.4 2.25
      vertex 0.3 26.4 2.04788
    endloop
  endfacet
  facet normal -6.12323e-17 0 1
    outer loop
      vertex -0.3 26.4 2.25
      vertex -0.3 25.7221 2.25
      vertex 0.3 25.7221 2.25
    endloop
  endfacet
  facet normal -6.12323e-17 0 1
    outer loop
      vertex 0.3 26.4 2.25
      vertex -0.3 26.4 2.25
      vertex 0.3 25.7221 2.25
    endloop
  endfacet
endsolid OpenSCAD_Model
