solid OpenSCAD_Model
  facet normal -0.678599 -0.678598 -0.281084
    outer loop
      vertex -4.04372 -6.02317 -2.12317
      vertex -4.04372 -6.90261 4.22663e-16
      vertex -5.80261 -4.77944 -0.879443
    endloop
  endfacet
  facet normal -0.678598 -0.678598 -0.281085
    outer loop
      vertex -5.80261 -4.77944 -0.879443
      vertex -4.04372 -6.90261 4.22663e-16
      vertex -5.80261 -5.14372 3.14962e-16
    endloop
  endfacet
  facet normal -0.678598 -0.678598 0.281085
    outer loop
      vertex -5.80261 -5.14372 3.14962e-16
      vertex -4.04372 -6.90261 4.22663e-16
      vertex -4.04372 -6.02317 2.12317
    endloop
  endfacet
  facet normal -5.65713e-17 -0.92388 0.382683
    outer loop
      vertex -4.04372 -6.02317 2.12317
      vertex -4.04372 -6.90261 4.22663e-16
      vertex -1.55628 -6.90261 4.22663e-16
    endloop
  endfacet
  facet normal -5.65713e-17 -0.92388 0.382683
    outer loop
      vertex -1.55628 -6.02317 2.12317
      vertex -4.04372 -6.02317 2.12317
      vertex -1.55628 -6.90261 4.22663e-16
    endloop
  endfacet
  facet normal -5.65713e-17 -0.92388 -0.382683
    outer loop
      vertex -1.55628 -6.90261 4.22663e-16
      vertex -4.04372 -6.90261 4.22663e-16
      vertex -4.04372 -6.02317 -2.12317
    endloop
  endfacet
  facet normal -5.65713e-17 -0.92388 -0.382683
    outer loop
      vertex -1.55628 -6.02317 -2.12317
      vertex -1.55628 -6.90261 4.22663e-16
      vertex -4.04372 -6.02317 -2.12317
    endloop
  endfacet
  facet normal -0.678598 -0.281085 -0.678598
    outer loop
      vertex -4.04372 -3.9 -3.00261
      vertex -4.04372 -6.02317 -2.12317
      vertex -5.80261 -3.9 -1.24372
    endloop
  endfacet
  facet normal -0.678599 -0.281085 -0.678598
    outer loop
      vertex -5.80261 -3.9 -1.24372
      vertex -4.04372 -6.02317 -2.12317
      vertex -5.80261 -4.77944 -0.879443
    endloop
  endfacet
  facet normal -2.34326e-17 -0.382683 -0.92388
    outer loop
      vertex -4.04372 -6.02317 -2.12317
      vertex -4.04372 -3.9 -3.00261
      vertex -1.55628 -6.02317 -2.12317
    endloop
  endfacet
  facet normal -2.34326e-17 -0.382683 -0.92388
    outer loop
      vertex -1.55628 -6.02317 -2.12317
      vertex -4.04372 -3.9 -3.00261
      vertex -1.55628 -3.9 -3.00261
    endloop
  endfacet
  facet normal -1 6.12323e-17 -3.7494e-33
    outer loop
      vertex -5.80261 -5.14372 3.14962e-16
      vertex -5.80261 -4.77944 0.879444
      vertex -5.80261 -4.77944 -0.879443
    endloop
  endfacet
  facet normal -1 6.12323e-17 -3.7494e-33
    outer loop
      vertex -5.80261 -4.77944 -0.879443
      vertex -5.80261 -4.77944 0.879444
      vertex -5.80261 -3.9 1.24372
    endloop
  endfacet
  facet normal -1 6.12323e-17 -3.7494e-33
    outer loop
      vertex -5.80261 -4.77944 -0.879443
      vertex -5.80261 -3.9 1.24372
      vertex -5.80261 -3.33009 1.00765
    endloop
  endfacet
  facet normal -1 6.12323e-17 -3.7494e-33
    outer loop
      vertex -5.80261 -4.77944 -0.879443
      vertex -5.80261 -3.33009 1.00765
      vertex -5.80261 -3.65299 0.228091
    endloop
  endfacet
  facet normal -1 6.12323e-17 -3.7494e-33
    outer loop
      vertex -5.80261 -4.77944 -0.879443
      vertex -5.80261 -3.65299 0.228091
      vertex -5.80261 -3.74747 2.29466e-16
    endloop
  endfacet
  facet normal -1 6.12323e-17 -3.7494e-33
    outer loop
      vertex -5.80261 -4.77944 -0.879443
      vertex -5.80261 -3.74747 2.29466e-16
      vertex -5.80261 -3.33009 -1.00765
    endloop
  endfacet
  facet normal -1 6.12323e-17 -3.7494e-33
    outer loop
      vertex -5.80261 -4.77944 -0.879443
      vertex -5.80261 -3.33009 -1.00765
      vertex -5.80261 -3.9 -1.24372
    endloop
  endfacet
  facet normal -0.678599 -0.678598 0.281085
    outer loop
      vertex -5.80261 -5.14372 3.14962e-16
      vertex -4.04372 -6.02317 2.12317
      vertex -5.80261 -4.77944 0.879444
    endloop
  endfacet
  facet normal -0.678599 -0.281084 0.678598
    outer loop
      vertex -5.80261 -4.77944 0.879444
      vertex -4.04372 -6.02317 2.12317
      vertex -4.04372 -3.9 3.00261
    endloop
  endfacet
  facet normal -2.34326e-17 -0.382683 0.92388
    outer loop
      vertex -4.04372 -3.9 3.00261
      vertex -4.04372 -6.02317 2.12317
      vertex -1.55628 -6.02317 2.12317
    endloop
  endfacet
  facet normal -2.34326e-17 -0.382683 0.92388
    outer loop
      vertex -1.55628 -3.9 3.00261
      vertex -4.04372 -3.9 3.00261
      vertex -1.55628 -6.02317 2.12317
    endloop
  endfacet
  facet normal 0.678598 -0.281085 0.678598
    outer loop
      vertex -1.55628 -3.9 3.00261
      vertex -1.55628 -6.02317 2.12317
      vertex -1.08953 -5.45975 1.88979
    endloop
  endfacet
  facet normal 0.678598 -0.281085 0.678598
    outer loop
      vertex -1.08953 -3.9 2.53586
      vertex -1.55628 -3.9 3.00261
      vertex -1.08953 -5.45975 1.88979
    endloop
  endfacet
  facet normal 0.678599 -0.281085 0.678598
    outer loop
      vertex -1.08953 -5.678 1.79938
      vertex -1.55628 -6.02317 2.12317
      vertex -1.08953 -5.69312 1.79312
    endloop
  endfacet
  facet normal 0.678599 -0.281085 0.678598
    outer loop
      vertex -1.08953 -5.45975 1.88979
      vertex -1.55628 -6.02317 2.12317
      vertex -1.08953 -5.678 1.79938
    endloop
  endfacet
  facet normal 0.678599 -0.678598 0.281084
    outer loop
      vertex -1.55628 -6.02317 2.12317
      vertex -1.55628 -6.90261 4.22663e-16
      vertex -1.08953 -6.33919 0.233376
    endloop
  endfacet
  facet normal 0.678599 -0.678598 0.281084
    outer loop
      vertex -1.08953 -5.69312 1.79312
      vertex -1.55628 -6.02317 2.12317
      vertex -1.08953 -6.33919 0.233376
    endloop
  endfacet
  facet normal 0.678598 -0.678598 0.281085
    outer loop
      vertex -1.08953 -6.33919 0.233376
      vertex -1.55628 -6.90261 4.22663e-16
      vertex -1.08953 -6.43586 3.94083e-16
    endloop
  endfacet
  facet normal 0.678598 -0.678598 0.281085
    outer loop
      vertex -1.08953 -6.42959 0.0151186
      vertex -1.08953 -6.33919 0.233376
      vertex -1.08953 -6.43586 3.94083e-16
    endloop
  endfacet
  facet normal 0.678598 -0.678598 -0.281085
    outer loop
      vertex -1.08953 -6.43586 3.94083e-16
      vertex -1.55628 -6.90261 4.22663e-16
      vertex -1.55628 -6.02317 -2.12317
    endloop
  endfacet
  facet normal 0.678598 -0.678598 -0.281085
    outer loop
      vertex -1.08953 -5.78979 -1.55975
      vertex -1.08953 -6.43586 3.94083e-16
      vertex -1.55628 -6.02317 -2.12317
    endloop
  endfacet
  facet normal 0.678599 -0.678598 -0.281085
    outer loop
      vertex -1.08953 -5.69938 -1.778
      vertex -1.55628 -6.02317 -2.12317
      vertex -1.08953 -5.69312 -1.79312
    endloop
  endfacet
  facet normal 0.678599 -0.678598 -0.281085
    outer loop
      vertex -1.08953 -5.78979 -1.55975
      vertex -1.55628 -6.02317 -2.12317
      vertex -1.08953 -5.69938 -1.778
    endloop
  endfacet
  facet normal 0.678599 -0.281084 -0.678598
    outer loop
      vertex -1.08953 -5.69312 -1.79312
      vertex -1.55628 -6.02317 -2.12317
      vertex -1.55628 -3.9 -3.00261
    endloop
  endfacet
  facet normal 0.678599 -0.281084 -0.678598
    outer loop
      vertex -1.08953 -4.13338 -2.43919
      vertex -1.08953 -5.69312 -1.79312
      vertex -1.55628 -3.9 -3.00261
    endloop
  endfacet
  facet normal -0.678599 0.281084 -0.678598
    outer loop
      vertex -4.04372 -3.9 -3.00261
      vertex -4.09829 -2.44142 -2.34388
      vertex -4.04372 -2.41631 -2.38804
    endloop
  endfacet
  facet normal -0.678599 0.281084 -0.678598
    outer loop
      vertex -4.04372 -3.9 -3.00261
      vertex -5.58884 -3.12744 -1.13749
      vertex -4.09829 -2.44142 -2.34388
    endloop
  endfacet
  facet normal -0.678598 0.281085 -0.678598
    outer loop
      vertex -4.04372 -3.9 -3.00261
      vertex -5.80261 -3.9 -1.24372
      vertex -5.58884 -3.12744 -1.13749
    endloop
  endfacet
  facet normal -0.678598 0.281085 -0.678598
    outer loop
      vertex -5.58884 -3.12744 -1.13749
      vertex -5.80261 -3.9 -1.24372
      vertex -5.80261 -3.33009 -1.00765
    endloop
  endfacet
  facet normal -0.678598 0.281085 -0.678598
    outer loop
      vertex -5.58884 -3.12744 -1.13749
      vertex -5.80261 -3.33009 -1.00765
      vertex -5.66302 -3.16158 -1.07745
    endloop
  endfacet
  facet normal 2.34326e-17 0.382683 -0.92388
    outer loop
      vertex -4.04372 -3.9 -3.00261
      vertex -4.04372 -2.41631 -2.38804
      vertex -1.55628 -3.9 -3.00261
    endloop
  endfacet
  facet normal 2.34326e-17 0.382683 -0.92388
    outer loop
      vertex -1.55628 -3.9 -3.00261
      vertex -4.04372 -2.41631 -2.38804
      vertex -3.59152 -2.36806 -2.36806
    endloop
  endfacet
  facet normal 2.34326e-17 0.382683 -0.92388
    outer loop
      vertex -1.55628 -3.9 -3.00261
      vertex -3.59152 -2.36806 -2.36806
      vertex -1.55628 -2.06096 -2.24086
    endloop
  endfacet
  facet normal 0.678598 -0.281085 -0.678598
    outer loop
      vertex -1.08953 -3.91512 -2.52959
      vertex -1.08953 -4.13338 -2.43919
      vertex -1.55628 -3.9 -3.00261
    endloop
  endfacet
  facet normal 0.678598 -0.281085 -0.678598
    outer loop
      vertex -1.08953 -3.9 -2.53586
      vertex -1.08953 -3.91512 -2.52959
      vertex -1.55628 -3.9 -3.00261
    endloop
  endfacet
  facet normal 0.678598 0.281085 -0.678598
    outer loop
      vertex -1.08953 -3.9 -2.53586
      vertex -1.55628 -3.9 -3.00261
      vertex -1.55628 -2.06096 -2.24086
    endloop
  endfacet
  facet normal 0.678598 0.281085 -0.678598
    outer loop
      vertex -1.29878 -2.21447 -2.04694
      vertex -1.08953 -3.9 -2.53586
      vertex -1.44515 -2.17834 -2.17834
    endloop
  endfacet
  facet normal 0.678598 0.281085 -0.678598
    outer loop
      vertex -1.44515 -2.17834 -2.17834
      vertex -1.08953 -3.9 -2.53586
      vertex -1.55628 -2.06096 -2.24086
    endloop
  endfacet
  facet normal 0.678598 0.281085 -0.678598
    outer loop
      vertex -1.16672 -2.24708 -1.92838
      vertex -1.08953 -3.9 -2.53586
      vertex -1.29878 -2.21447 -2.04694
    endloop
  endfacet
  facet normal 0.678598 0.281085 -0.678598
    outer loop
      vertex -1.08953 -2.34025 -1.88979
      vertex -1.08953 -3.9 -2.53586
      vertex -1.16672 -2.24708 -1.92838
    endloop
  endfacet
  facet normal 0.678598 -0.678598 -0.281085
    outer loop
      vertex -5.80261 -3.74747 2.29466e-16
      vertex -6.25879 -4.20365 2.57399e-16
      vertex -6.25879 -2.97243 -2.97243
    endloop
  endfacet
  facet normal 0.678598 -0.678598 -0.281085
    outer loop
      vertex -5.80261 -3.33009 -1.00765
      vertex -5.80261 -3.74747 2.29466e-16
      vertex -6.25879 -2.97243 -2.97243
    endloop
  endfacet
  facet normal 0.678598 -0.678598 -0.281085
    outer loop
      vertex -5.66302 -2.67454 -2.25327
      vertex -5.80261 -3.33009 -1.00765
      vertex -6.25879 -2.97243 -2.97243
    endloop
  endfacet
  facet normal 0.678598 -0.678598 -0.281085
    outer loop
      vertex -5.66302 -3.16158 -1.07745
      vertex -5.80261 -3.33009 -1.00765
      vertex -5.66302 -2.67454 -2.25327
    endloop
  endfacet
  facet normal 0.678598 -0.678598 0.281085
    outer loop
      vertex -5.80261 -3.65299 0.228091
      vertex -6.25879 -4.20365 2.57399e-16
      vertex -5.80261 -3.74747 2.29466e-16
    endloop
  endfacet
  facet normal 0.678598 -0.678598 0.281085
    outer loop
      vertex -6.25879 -2.97243 2.97243
      vertex -6.25879 -4.20365 2.57399e-16
      vertex -5.80261 -3.65299 0.228091
    endloop
  endfacet
  facet normal 0.678598 -0.678598 0.281085
    outer loop
      vertex -5.66302 -3.16158 1.07745
      vertex -6.25879 -2.97243 2.97243
      vertex -5.80261 -3.33009 1.00765
    endloop
  endfacet
  facet normal 0.678598 -0.678598 0.281085
    outer loop
      vertex -5.80261 -3.33009 1.00765
      vertex -6.25879 -2.97243 2.97243
      vertex -5.80261 -3.65299 0.228091
    endloop
  endfacet
  facet normal 0.678598 -0.678598 0.281085
    outer loop
      vertex -5.66302 -2.55115 2.55115
      vertex -6.25879 -2.97243 2.97243
      vertex -5.66302 -3.16158 1.07745
    endloop
  endfacet
  facet normal -0.678599 0.281085 0.678598
    outer loop
      vertex -5.80261 -3.9 1.24372
      vertex -4.89993 -2.81037 1.69506
      vertex -5.80261 -3.33009 1.00765
    endloop
  endfacet
  facet normal -0.678599 0.281085 0.678598
    outer loop
      vertex -5.80261 -3.33009 1.00765
      vertex -4.89993 -2.81037 1.69506
      vertex -5.66302 -3.16158 1.07745
    endloop
  endfacet
  facet normal -0.678598 0.281085 0.678598
    outer loop
      vertex -5.80261 -3.9 1.24372
      vertex -4.04372 -3.9 3.00261
      vertex -4.89993 -2.81037 1.69506
    endloop
  endfacet
  facet normal -0.678598 0.281085 0.678598
    outer loop
      vertex -4.89993 -2.81037 1.69506
      vertex -4.04372 -3.9 3.00261
      vertex -4.04372 -2.41631 2.38804
    endloop
  endfacet
  facet normal -0.678598 -0.281085 0.678598
    outer loop
      vertex -5.80261 -3.9 1.24372
      vertex -5.80261 -4.77944 0.879444
      vertex -4.04372 -3.9 3.00261
    endloop
  endfacet
  facet normal 2.34326e-17 0.382683 0.92388
    outer loop
      vertex -4.04372 -2.41631 2.38804
      vertex -4.04372 -3.9 3.00261
      vertex -1.55628 -3.9 3.00261
    endloop
  endfacet
  facet normal 2.34326e-17 0.382683 0.92388
    outer loop
      vertex -3.59152 -2.36806 2.36806
      vertex -4.04372 -2.41631 2.38804
      vertex -1.55628 -3.9 3.00261
    endloop
  endfacet
  facet normal 2.34326e-17 0.382683 0.92388
    outer loop
      vertex -1.55628 -2.06096 2.24086
      vertex -1.85284 -2.10571 2.25939
      vertex -1.55628 -3.9 3.00261
    endloop
  endfacet
  facet normal 2.34326e-17 0.382683 0.92388
    outer loop
      vertex -1.85284 -2.10571 2.25939
      vertex -3.59152 -2.36806 2.36806
      vertex -1.55628 -3.9 3.00261
    endloop
  endfacet
  facet normal 0.678599 0.281084 0.678598
    outer loop
      vertex -1.55628 -2.06096 2.24086
      vertex -1.55628 -3.9 3.00261
      vertex -1.08953 -3.66662 2.43919
    endloop
  endfacet
  facet normal 0.678599 0.281084 0.678598
    outer loop
      vertex -1.54484 -2.07304 2.23442
      vertex -1.55628 -2.06096 2.24086
      vertex -1.08953 -3.66662 2.43919
    endloop
  endfacet
  facet normal 0.678599 0.281084 0.678598
    outer loop
      vertex -1.08953 -2.26613 1.85909
      vertex -1.44515 -2.17834 2.17834
      vertex -1.08953 -3.66662 2.43919
    endloop
  endfacet
  facet normal 0.678599 0.281084 0.678598
    outer loop
      vertex -1.44515 -2.17834 2.17834
      vertex -1.54484 -2.07304 2.23442
      vertex -1.08953 -3.66662 2.43919
    endloop
  endfacet
  facet normal 0.678598 0.281085 0.678598
    outer loop
      vertex -1.55628 -3.9 3.00261
      vertex -1.08953 -3.9 2.53586
      vertex -1.08953 -3.88488 2.52959
    endloop
  endfacet
  facet normal 0.678598 0.281085 0.678598
    outer loop
      vertex -1.08953 -3.66662 2.43919
      vertex -1.55628 -3.9 3.00261
      vertex -1.08953 -3.88488 2.52959
    endloop
  endfacet
  facet normal 0.0346247 0.382455 0.923325
    outer loop
      vertex -1.08953 -3.9 2.53586
      vertex 49.2 -3.9 0.65
      vertex 49.2 -3.44038 0.459619
    endloop
  endfacet
  facet normal 0.0346247 0.382455 0.923325
    outer loop
      vertex -1.08953 -3.88488 2.52959
      vertex -1.08953 -3.9 2.53586
      vertex 49.2 -3.44038 0.459619
    endloop
  endfacet
  facet normal 0.0346247 -0.382454 0.923326
    outer loop
      vertex -1.08953 -5.45975 1.88979
      vertex -1.08953 -5.678 1.79938
      vertex 49.2 -3.9 0.65
    endloop
  endfacet
  facet normal 0.0346247 -0.382454 0.923326
    outer loop
      vertex -1.08953 -3.9 2.53586
      vertex -1.08953 -5.45975 1.88979
      vertex 49.2 -3.9 0.65
    endloop
  endfacet
  facet normal 0.0346248 -0.382455 0.923325
    outer loop
      vertex -1.08953 -5.678 1.79938
      vertex -1.08953 -5.69312 1.79312
      vertex 49.2 -4.35962 0.459619
    endloop
  endfacet
  facet normal 0.0346248 -0.382455 0.923325
    outer loop
      vertex 49.2 -3.9 0.65
      vertex -1.08953 -5.678 1.79938
      vertex 49.2 -4.35962 0.459619
    endloop
  endfacet
  facet normal 0.0346247 -0.923326 0.382454
    outer loop
      vertex -1.08953 -6.33919 0.233376
      vertex -1.08953 -6.42959 0.0151186
      vertex 49.2 -4.35962 0.459619
    endloop
  endfacet
  facet normal 0.0346247 -0.923326 0.382454
    outer loop
      vertex -1.08953 -5.69312 1.79312
      vertex -1.08953 -6.33919 0.233376
      vertex 49.2 -4.35962 0.459619
    endloop
  endfacet
  facet normal 0.0346247 -0.923325 0.382455
    outer loop
      vertex -1.08953 -6.42959 0.0151186
      vertex -1.08953 -6.43586 3.94083e-16
      vertex 49.2 -4.55 2.78607e-16
    endloop
  endfacet
  facet normal 0.0346247 -0.923325 0.382455
    outer loop
      vertex 49.2 -4.35962 0.459619
      vertex -1.08953 -6.42959 0.0151186
      vertex 49.2 -4.55 2.78607e-16
    endloop
  endfacet
  facet normal 0.0346247 -0.923326 -0.382454
    outer loop
      vertex 49.2 -4.55 2.78607e-16
      vertex -1.08953 -6.43586 3.94083e-16
      vertex -1.08953 -5.78979 -1.55975
    endloop
  endfacet
  facet normal 0.0346247 -0.923326 -0.382454
    outer loop
      vertex -1.08953 -5.69938 -1.778
      vertex 49.2 -4.55 2.78607e-16
      vertex -1.08953 -5.78979 -1.55975
    endloop
  endfacet
  facet normal 0.0346248 -0.923325 -0.382455
    outer loop
      vertex 49.2 -4.55 2.78607e-16
      vertex -1.08953 -5.69938 -1.778
      vertex -1.08953 -5.69312 -1.79312
    endloop
  endfacet
  facet normal 0.0346248 -0.923325 -0.382455
    outer loop
      vertex 49.2 -4.35962 -0.459619
      vertex 49.2 -4.55 2.78607e-16
      vertex -1.08953 -5.69312 -1.79312
    endloop
  endfacet
  facet normal 0.0346247 -0.382454 -0.923326
    outer loop
      vertex -1.08953 -5.69312 -1.79312
      vertex -1.08953 -4.13338 -2.43919
      vertex 49.2 -4.35962 -0.459619
    endloop
  endfacet
  facet normal 0.0346247 -0.382454 -0.923326
    outer loop
      vertex 49.2 -4.35962 -0.459619
      vertex -1.08953 -4.13338 -2.43919
      vertex -1.08953 -3.91512 -2.52959
    endloop
  endfacet
  facet normal 0.114723 -0.917779 -0.380158
    outer loop
      vertex -4.09829 -2.44142 -2.34388
      vertex -5.66302 -2.56827 -2.50984
      vertex -5.66302 -2.55115 -2.55115
    endloop
  endfacet
  facet normal 0.114723 -0.917779 -0.380158
    outer loop
      vertex -4.04372 -2.41631 -2.38804
      vertex -4.09829 -2.44142 -2.34388
      vertex -5.66302 -2.55115 -2.55115
    endloop
  endfacet
  facet normal 0.114723 -0.917779 -0.380158
    outer loop
      vertex -3.59152 -2.36806 -2.36806
      vertex -4.04372 -2.41631 -2.38804
      vertex -5.66302 -2.55115 -2.55115
    endloop
  endfacet
  facet normal 0.114722 -0.91778 -0.380157
    outer loop
      vertex -5.58884 -3.12744 -1.13749
      vertex -5.66302 -3.16158 -1.07745
      vertex -5.66302 -2.67454 -2.25327
    endloop
  endfacet
  facet normal 0.114722 -0.91778 -0.380157
    outer loop
      vertex -5.66302 -2.56827 -2.50984
      vertex -5.58884 -3.12744 -1.13749
      vertex -5.66302 -2.67454 -2.25327
    endloop
  endfacet
  facet normal 0.114722 -0.91778 -0.380157
    outer loop
      vertex -5.66302 -2.56827 -2.50984
      vertex -4.09829 -2.44142 -2.34388
      vertex -5.58884 -3.12744 -1.13749
    endloop
  endfacet
  facet normal 0.114722 -0.380157 -0.91778
    outer loop
      vertex -5.66302 -2.55115 -2.55115
      vertex -5.66302 -0.297887 -3.48449
      vertex -3.59152 -2.36806 -2.36806
    endloop
  endfacet
  facet normal 0.114722 -0.380157 -0.91778
    outer loop
      vertex -3.59152 -2.36806 -2.36806
      vertex -5.66302 -0.297887 -3.48449
      vertex -5.66302 -0.0413124 -3.59076
    endloop
  endfacet
  facet normal 0.114722 -0.380157 -0.91778
    outer loop
      vertex -1.55628 -2.06096 -2.24086
      vertex -5.66302 -0.0413124 -3.59076
      vertex 18 -0.459619 -0.459619
    endloop
  endfacet
  facet normal 0.114722 -0.380157 -0.91778
    outer loop
      vertex -1.44515 -2.17834 -2.17834
      vertex -1.55628 -2.06096 -2.24086
      vertex 18 -0.459619 -0.459619
    endloop
  endfacet
  facet normal 0.114722 -0.380157 -0.91778
    outer loop
      vertex -3.59152 -2.36806 -2.36806
      vertex -5.66302 -0.0413124 -3.59076
      vertex -1.55628 -2.06096 -2.24086
    endloop
  endfacet
  facet normal 0.0346247 -0.382455 -0.923325
    outer loop
      vertex 49.2 -4.35962 -0.459619
      vertex -1.08953 -3.91512 -2.52959
      vertex 49.2 -3.9 -0.65
    endloop
  endfacet
  facet normal 0.0346247 -0.382455 -0.923325
    outer loop
      vertex 49.2 -3.9 -0.65
      vertex -1.08953 -3.91512 -2.52959
      vertex -1.08953 -3.9 -2.53586
    endloop
  endfacet
  facet normal 0.0346247 0.382454 -0.923326
    outer loop
      vertex -1.08953 -3.9 -2.53586
      vertex -1.08953 -2.34025 -1.88979
      vertex 49.2 -3.9 -0.65
    endloop
  endfacet
  facet normal 0.0346247 0.382454 -0.923326
    outer loop
      vertex 49.2 -3.9 -0.65
      vertex -1.08953 -2.34025 -1.88979
      vertex -1.08953 -2.26613 -1.85909
    endloop
  endfacet
  facet normal 0.0346247 0.382454 -0.923326
    outer loop
      vertex 49.2 -3.9 -0.65
      vertex -1.08953 -2.26613 -1.85909
      vertex 0.02961 -2.16156 -1.77381
    endloop
  endfacet
  facet normal 0.678599 0.281085 -0.678598
    outer loop
      vertex -1.08953 -2.26613 -1.85909
      vertex -1.08953 -2.34025 -1.88979
      vertex -1.16672 -2.24708 -1.92838
    endloop
  endfacet
  facet normal 0.114722 -0.91778 -0.380157
    outer loop
      vertex 0.02961 -2.16156 -1.77381
      vertex -1.08953 -2.26613 -1.85909
      vertex -1.16672 -2.24708 -1.92838
    endloop
  endfacet
  facet normal 0.114722 -0.91778 -0.380157
    outer loop
      vertex -1.29878 -2.21447 -2.04694
      vertex 0.02961 -2.16156 -1.77381
      vertex -1.16672 -2.24708 -1.92838
    endloop
  endfacet
  facet normal 0.114722 -0.91778 -0.380157
    outer loop
      vertex 18 -0.65 3.9801e-17
      vertex 9.2 -1.75 1.07157e-16
      vertex 8.68259 -1.77264 -0.101493
    endloop
  endfacet
  facet normal 0.114722 -0.91778 -0.380157
    outer loop
      vertex -1.29878 -2.21447 -2.04694
      vertex 0.238113 -2.14208 -1.75792
      vertex 0.02961 -2.16156 -1.77381
    endloop
  endfacet
  facet normal 0.114722 -0.91778 -0.380157
    outer loop
      vertex -1.29878 -2.21447 -2.04694
      vertex 18 -0.65 3.9801e-17
      vertex 0.238113 -2.14208 -1.75792
    endloop
  endfacet
  facet normal 0.114722 -0.91778 -0.380157
    outer loop
      vertex 8.68259 -1.77264 -0.101493
      vertex 0.238113 -2.14208 -1.75792
      vertex 18 -0.65 3.9801e-17
    endloop
  endfacet
  facet normal 0.114723 -0.917779 -0.380158
    outer loop
      vertex 18 -0.65 3.9801e-17
      vertex -1.29878 -2.21447 -2.04694
      vertex -1.44515 -2.17834 -2.17834
    endloop
  endfacet
  facet normal 0.114723 -0.917779 -0.380158
    outer loop
      vertex 18 -0.459619 -0.459619
      vertex 18 -0.65 3.9801e-17
      vertex -1.44515 -2.17834 -2.17834
    endloop
  endfacet
  facet normal 0.678598 -0.678598 -0.281085
    outer loop
      vertex -5.66302 -2.56827 -2.50984
      vertex -6.25879 -2.97243 -2.97243
      vertex -5.66302 -2.55115 -2.55115
    endloop
  endfacet
  facet normal 0.678598 -0.678598 -0.281085
    outer loop
      vertex -5.66302 -2.67454 -2.25327
      vertex -6.25879 -2.97243 -2.97243
      vertex -5.66302 -2.56827 -2.50984
    endloop
  endfacet
  facet normal -2.34326e-17 -0.382683 -0.92388
    outer loop
      vertex -9.74121 -2.97243 -2.97243
      vertex -9.74121 -1.50781e-16 -4.20365
      vertex -6.25879 -2.97243 -2.97243
    endloop
  endfacet
  facet normal -2.34326e-17 -0.382683 -0.92388
    outer loop
      vertex -6.25879 -2.97243 -2.97243
      vertex -9.74121 -1.50781e-16 -4.20365
      vertex -6.25879 -3.64018e-16 -4.20365
    endloop
  endfacet
  facet normal -5.65713e-17 -0.92388 -0.382683
    outer loop
      vertex -6.25879 -4.20365 2.57399e-16
      vertex -9.74121 -4.20365 2.57399e-16
      vertex -9.74121 -2.97243 -2.97243
    endloop
  endfacet
  facet normal -5.65713e-17 -0.92388 -0.382683
    outer loop
      vertex -6.25879 -2.97243 -2.97243
      vertex -6.25879 -4.20365 2.57399e-16
      vertex -9.74121 -2.97243 -2.97243
    endloop
  endfacet
  facet normal 0.678598 -0.281085 -0.678598
    outer loop
      vertex -5.66302 -2.55115 -2.55115
      vertex -6.25879 -2.97243 -2.97243
      vertex -6.25879 -3.64018e-16 -4.20365
    endloop
  endfacet
  facet normal 0.678598 -0.281085 -0.678598
    outer loop
      vertex -5.66302 -0.297887 -3.48449
      vertex -5.66302 -2.55115 -2.55115
      vertex -6.25879 -3.64018e-16 -4.20365
    endloop
  endfacet
  facet normal -5.65713e-17 -0.92388 0.382683
    outer loop
      vertex -9.74121 -2.97243 2.97243
      vertex -9.74121 -4.20365 2.57399e-16
      vertex -6.25879 -4.20365 2.57399e-16
    endloop
  endfacet
  facet normal -5.65713e-17 -0.92388 0.382683
    outer loop
      vertex -6.25879 -2.97243 2.97243
      vertex -9.74121 -2.97243 2.97243
      vertex -6.25879 -4.20365 2.57399e-16
    endloop
  endfacet
  facet normal -2.34326e-17 -0.382683 0.92388
    outer loop
      vertex -9.74121 3.64018e-16 4.20365
      vertex -9.74121 -2.97243 2.97243
      vertex -6.25879 -2.97243 2.97243
    endloop
  endfacet
  facet normal -2.34326e-17 -0.382683 0.92388
    outer loop
      vertex -6.25879 1.50781e-16 4.20365
      vertex -9.74121 3.64018e-16 4.20365
      vertex -6.25879 -2.97243 2.97243
    endloop
  endfacet
  facet normal 0.678598 -0.281085 0.678598
    outer loop
      vertex -6.25879 1.50781e-16 4.20365
      vertex -6.25879 -2.97243 2.97243
      vertex -5.66302 -2.25327 2.67454
    endloop
  endfacet
  facet normal 0.678598 -0.281085 0.678598
    outer loop
      vertex -5.66302 7.78198e-17 3.60788
      vertex -6.25879 1.50781e-16 4.20365
      vertex -5.66302 -2.25327 2.67454
    endloop
  endfacet
  facet normal 0.678598 -0.281085 0.678598
    outer loop
      vertex -5.66302 -2.50984 2.56827
      vertex -6.25879 -2.97243 2.97243
      vertex -5.66302 -2.55115 2.55115
    endloop
  endfacet
  facet normal 0.678598 -0.281085 0.678598
    outer loop
      vertex -5.66302 -2.25327 2.67454
      vertex -6.25879 -2.97243 2.97243
      vertex -5.66302 -2.50984 2.56827
    endloop
  endfacet
  facet normal 0.114723 -0.380158 0.917779
    outer loop
      vertex -5.66302 -2.50984 2.56827
      vertex -5.66302 -2.55115 2.55115
      vertex -3.59152 -2.36806 2.36806
    endloop
  endfacet
  facet normal 0.114723 -0.380158 0.917779
    outer loop
      vertex -1.85284 -2.10571 2.25939
      vertex -5.66302 -2.50984 2.56827
      vertex -3.59152 -2.36806 2.36806
    endloop
  endfacet
  facet normal 0.114722 -0.91778 0.380157
    outer loop
      vertex -5.66302 -2.55115 2.55115
      vertex -5.66302 -3.16158 1.07745
      vertex -4.89993 -2.81037 1.69506
    endloop
  endfacet
  facet normal 0.114722 -0.91778 0.380157
    outer loop
      vertex -4.04372 -2.41631 2.38804
      vertex -5.66302 -2.55115 2.55115
      vertex -4.89993 -2.81037 1.69506
    endloop
  endfacet
  facet normal 0.114722 -0.91778 0.380157
    outer loop
      vertex -4.04372 -2.41631 2.38804
      vertex -3.59152 -2.36806 2.36806
      vertex -5.66302 -2.55115 2.55115
    endloop
  endfacet
  facet normal 0.114722 -0.380157 0.91778
    outer loop
      vertex -5.66302 -2.25327 2.67454
      vertex -5.66302 -2.50984 2.56827
      vertex -1.85284 -2.10571 2.25939
    endloop
  endfacet
  facet normal 0.114722 -0.380157 0.91778
    outer loop
      vertex 18 -1.55224e-15 0.65
      vertex -5.66302 -2.25327 2.67454
      vertex -1.55628 -2.06096 2.24086
    endloop
  endfacet
  facet normal 0.114722 -0.380157 0.91778
    outer loop
      vertex -1.55628 -2.06096 2.24086
      vertex -5.66302 -2.25327 2.67454
      vertex -1.85284 -2.10571 2.25939
    endloop
  endfacet
  facet normal 0.114722 -0.380157 0.91778
    outer loop
      vertex 18 -1.55224e-15 0.65
      vertex -1.55628 -2.06096 2.24086
      vertex -1.54484 -2.07304 2.23442
    endloop
  endfacet
  facet normal 0.114722 -0.380157 0.91778
    outer loop
      vertex -5.66302 7.78198e-17 3.60788
      vertex -5.66302 -2.25327 2.67454
      vertex 18 -1.55224e-15 0.65
    endloop
  endfacet
  facet normal 0.114723 -0.380158 0.917779
    outer loop
      vertex -1.54484 -2.07304 2.23442
      vertex -1.44515 -2.17834 2.17834
      vertex 18 -0.459619 0.459619
    endloop
  endfacet
  facet normal 0.114723 -0.380158 0.917779
    outer loop
      vertex 18 -1.55224e-15 0.65
      vertex -1.54484 -2.07304 2.23442
      vertex 18 -0.459619 0.459619
    endloop
  endfacet
  facet normal 0.114722 -0.91778 0.380157
    outer loop
      vertex -1.44515 -2.17834 2.17834
      vertex -1.08953 -2.26613 1.85909
      vertex 0.238112 -2.14208 1.75792
    endloop
  endfacet
  facet normal 0.114722 -0.91778 0.380157
    outer loop
      vertex 0.405111 -2.13478 1.72516
      vertex -1.44515 -2.17834 2.17834
      vertex 0.238112 -2.14208 1.75792
    endloop
  endfacet
  facet normal 0.114722 -0.91778 0.380157
    outer loop
      vertex 0.405111 -2.13478 1.72516
      vertex 7.77806 -1.81221 0.278919
      vertex -1.44515 -2.17834 2.17834
    endloop
  endfacet
  facet normal 0.114722 -0.91778 0.380157
    outer loop
      vertex 7.77806 -1.81221 0.278919
      vertex 18 -0.459619 0.459619
      vertex -1.44515 -2.17834 2.17834
    endloop
  endfacet
  facet normal 0.0346247 0.382454 0.923326
    outer loop
      vertex -1.08953 -3.66662 2.43919
      vertex -1.08953 -3.88488 2.52959
      vertex 49.2 -3.44038 0.459619
    endloop
  endfacet
  facet normal 0.0346247 0.382454 0.923326
    outer loop
      vertex -1.08953 -2.26613 1.85909
      vertex -1.08953 -3.66662 2.43919
      vertex 0.238112 -2.14208 1.75792
    endloop
  endfacet
  facet normal 0.0346247 0.382454 0.923326
    outer loop
      vertex 0.238112 -2.14208 1.75792
      vertex -1.08953 -3.66662 2.43919
      vertex 49.2 -3.44038 0.459619
    endloop
  endfacet
  facet normal 1 -6.12323e-17 3.7494e-33
    outer loop
      vertex 49.2 -4.35962 0.459619
      vertex 49.2 -4.55 2.78607e-16
      vertex 49.2 -4.35962 -0.459619
    endloop
  endfacet
  facet normal 1 -6.12323e-17 3.7494e-33
    outer loop
      vertex 49.2 -3.44038 -0.459619
      vertex 49.2 -4.35962 0.459619
      vertex 49.2 -3.9 -0.65
    endloop
  endfacet
  facet normal 1 -6.12323e-17 3.7494e-33
    outer loop
      vertex 49.2 -3.9 -0.65
      vertex 49.2 -4.35962 0.459619
      vertex 49.2 -4.35962 -0.459619
    endloop
  endfacet
  facet normal 1 -6.12323e-17 3.7494e-33
    outer loop
      vertex 49.2 -3.25 1.99005e-16
      vertex 49.2 -4.35962 0.459619
      vertex 49.2 -3.44038 -0.459619
    endloop
  endfacet
  facet normal 1 -6.12323e-17 3.7494e-33
    outer loop
      vertex 49.2 -3.44038 0.459619
      vertex 49.2 -4.35962 0.459619
      vertex 49.2 -3.25 1.99005e-16
    endloop
  endfacet
  facet normal 1 -6.12323e-17 3.7494e-33
    outer loop
      vertex 49.2 -3.9 0.65
      vertex 49.2 -4.35962 0.459619
      vertex 49.2 -3.44038 0.459619
    endloop
  endfacet
  facet normal 0.0346248 0.923325 0.382455
    outer loop
      vertex 49.2 -3.44038 0.459619
      vertex 49.2 -3.25 1.99005e-16
      vertex 0.238112 -2.14208 1.75792
    endloop
  endfacet
  facet normal 0.0346248 0.923325 0.382455
    outer loop
      vertex 0.238112 -2.14208 1.75792
      vertex 49.2 -3.25 1.99005e-16
      vertex 0.405111 -2.13478 1.72516
    endloop
  endfacet
  facet normal 1 -6.12323e-17 3.7494e-33
    outer loop
      vertex 18 -0.459619 0.459619
      vertex 18 -0.65 3.9801e-17
      vertex 18 -0.459619 -0.459619
    endloop
  endfacet
  facet normal 1 -6.12323e-17 3.7494e-33
    outer loop
      vertex 18 0.459619 -0.459619
      vertex 18 -0.459619 0.459619
      vertex 18 -1.63184e-15 -0.65
    endloop
  endfacet
  facet normal 1 -6.12323e-17 3.7494e-33
    outer loop
      vertex 18 -1.63184e-15 -0.65
      vertex 18 -0.459619 0.459619
      vertex 18 -0.459619 -0.459619
    endloop
  endfacet
  facet normal 1 -6.12323e-17 3.7494e-33
    outer loop
      vertex 18 0.65 -3.9801e-17
      vertex 18 -0.459619 0.459619
      vertex 18 0.459619 -0.459619
    endloop
  endfacet
  facet normal 1 -6.12323e-17 3.7494e-33
    outer loop
      vertex 18 0.459619 0.459619
      vertex 18 -0.459619 0.459619
      vertex 18 0.65 -3.9801e-17
    endloop
  endfacet
  facet normal 1 -6.12323e-17 3.7494e-33
    outer loop
      vertex 18 -1.55224e-15 0.65
      vertex 18 -0.459619 0.459619
      vertex 18 0.459619 0.459619
    endloop
  endfacet
  facet normal 0.114722 -0.380158 -0.917779
    outer loop
      vertex 18 -0.459619 -0.459619
      vertex -5.66302 -0.0413124 -3.59076
      vertex 18 -1.63184e-15 -0.65
    endloop
  endfacet
  facet normal 0.114722 -0.380158 -0.917779
    outer loop
      vertex 18 -1.63184e-15 -0.65
      vertex -5.66302 -0.0413124 -3.59076
      vertex -5.66302 -3.64018e-16 -3.60788
    endloop
  endfacet
  facet normal 0.678598 -0.281085 -0.678598
    outer loop
      vertex -5.66302 -0.0413124 -3.59076
      vertex -5.66302 -0.297887 -3.48449
      vertex -6.25879 -3.64018e-16 -4.20365
    endloop
  endfacet
  facet normal 0.678598 -0.281085 -0.678598
    outer loop
      vertex -5.66302 -3.64018e-16 -3.60788
      vertex -5.66302 -0.0413124 -3.59076
      vertex -6.25879 -3.64018e-16 -4.20365
    endloop
  endfacet
  facet normal 0.0346248 0.382455 -0.923325
    outer loop
      vertex 49.2 -3.9 -0.65
      vertex 0.02961 -2.16156 -1.77381
      vertex 49.2 -3.44038 -0.459619
    endloop
  endfacet
  facet normal 0.0346248 0.382455 -0.923325
    outer loop
      vertex 49.2 -3.44038 -0.459619
      vertex 0.02961 -2.16156 -1.77381
      vertex 0.238113 -2.14208 -1.75792
    endloop
  endfacet
  facet normal 0.0346247 0.923326 -0.382454
    outer loop
      vertex 8.68259 -1.77264 -0.101493
      vertex 49.2 -3.44038 -0.459619
      vertex 0.238113 -2.14208 -1.75792
    endloop
  endfacet
  facet normal 0.0346247 0.923325 -0.382455
    outer loop
      vertex 49.2 -3.44038 -0.459619
      vertex 8.68259 -1.77264 -0.101493
      vertex 49.2 -3.25 1.99005e-16
    endloop
  endfacet
  facet normal 0.0346247 0.923325 -0.382455
    outer loop
      vertex 49.2 -3.25 1.99005e-16
      vertex 8.68259 -1.77264 -0.101493
      vertex 9.2 -1.75 1.07157e-16
    endloop
  endfacet
  facet normal 0.114722 -0.917779 0.380158
    outer loop
      vertex 18 -0.459619 0.459619
      vertex 7.77806 -1.81221 0.278919
      vertex 9.2 -1.75 1.07157e-16
    endloop
  endfacet
  facet normal 0.114722 -0.917779 0.380158
    outer loop
      vertex 18 -0.65 3.9801e-17
      vertex 18 -0.459619 0.459619
      vertex 9.2 -1.75 1.07157e-16
    endloop
  endfacet
  facet normal 0.0346247 0.923326 0.382454
    outer loop
      vertex 49.2 -3.25 1.99005e-16
      vertex 9.2 -1.75 1.07157e-16
      vertex 0.405111 -2.13478 1.72516
    endloop
  endfacet
  facet normal 0.0346247 0.923326 0.382454
    outer loop
      vertex 0.405111 -2.13478 1.72516
      vertex 9.2 -1.75 1.07157e-16
      vertex 7.77806 -1.81221 0.278919
    endloop
  endfacet
  facet normal 2.34326e-17 0.382683 -0.92388
    outer loop
      vertex -9.74121 -1.50781e-16 -4.20365
      vertex -9.74121 2.97243 -2.97243
      vertex -6.25879 -3.64018e-16 -4.20365
    endloop
  endfacet
  facet normal 2.34326e-17 0.382683 -0.92388
    outer loop
      vertex -6.25879 -3.64018e-16 -4.20365
      vertex -9.74121 2.97243 -2.97243
      vertex -6.25879 2.97243 -2.97243
    endloop
  endfacet
  facet normal 0.678598 0.281085 -0.678598
    outer loop
      vertex -5.66302 -3.64018e-16 -3.60788
      vertex -6.25879 -3.64018e-16 -4.20365
      vertex -6.25879 2.97243 -2.97243
    endloop
  endfacet
  facet normal 0.678598 0.281085 -0.678598
    outer loop
      vertex -5.66302 2.25327 -2.67454
      vertex -5.66302 -3.64018e-16 -3.60788
      vertex -6.25879 2.97243 -2.97243
    endloop
  endfacet
  facet normal -0.678598 0.281085 -0.678598
    outer loop
      vertex -9.74121 2.97243 -2.97243
      vertex -9.74121 -1.50781e-16 -4.20365
      vertex -12.2037 1.23122 -1.23122
    endloop
  endfacet
  facet normal -0.678598 0.281085 -0.678598
    outer loop
      vertex -12.2037 1.23122 -1.23122
      vertex -9.74121 -1.50781e-16 -4.20365
      vertex -12.2037 1.50781e-16 -1.74121
    endloop
  endfacet
  facet normal -0.678598 -0.281085 -0.678598
    outer loop
      vertex -9.74121 -1.50781e-16 -4.20365
      vertex -9.74121 -2.97243 -2.97243
      vertex -12.2037 1.50781e-16 -1.74121
    endloop
  endfacet
  facet normal -0.678598 -0.281085 -0.678598
    outer loop
      vertex -12.2037 1.50781e-16 -1.74121
      vertex -9.74121 -2.97243 -2.97243
      vertex -12.2037 -1.23122 -1.23122
    endloop
  endfacet
  facet normal -0.678598 -0.678598 -0.281085
    outer loop
      vertex -9.74121 -2.97243 -2.97243
      vertex -9.74121 -4.20365 2.57399e-16
      vertex -12.2037 -1.23122 -1.23122
    endloop
  endfacet
  facet normal -0.678598 -0.678598 -0.281085
    outer loop
      vertex -12.2037 -1.23122 -1.23122
      vertex -9.74121 -4.20365 2.57399e-16
      vertex -12.2037 -1.74121 1.06618e-16
    endloop
  endfacet
  facet normal -0.678598 -0.678598 0.281085
    outer loop
      vertex -12.2037 -1.74121 1.06618e-16
      vertex -9.74121 -4.20365 2.57399e-16
      vertex -9.74121 -2.97243 2.97243
    endloop
  endfacet
  facet normal -0.678598 -0.678598 0.281085
    outer loop
      vertex -12.2037 -1.74121 1.06618e-16
      vertex -9.74121 -2.97243 2.97243
      vertex -12.2037 -1.23122 1.23122
    endloop
  endfacet
  facet normal -0.678598 -0.281085 0.678598
    outer loop
      vertex -12.2037 -1.23122 1.23122
      vertex -9.74121 -2.97243 2.97243
      vertex -9.74121 3.64018e-16 4.20365
    endloop
  endfacet
  facet normal -0.678598 -0.281085 0.678598
    outer loop
      vertex -12.2037 3.64018e-16 1.74121
      vertex -12.2037 -1.23122 1.23122
      vertex -9.74121 3.64018e-16 4.20365
    endloop
  endfacet
  facet normal -0.678598 0.281085 0.678598
    outer loop
      vertex -9.74121 2.97243 2.97243
      vertex -12.2037 3.64018e-16 1.74121
      vertex -9.74121 3.64018e-16 4.20365
    endloop
  endfacet
  facet normal 2.34326e-17 0.382683 0.92388
    outer loop
      vertex -9.74121 2.97243 2.97243
      vertex -9.74121 3.64018e-16 4.20365
      vertex -6.25879 1.50781e-16 4.20365
    endloop
  endfacet
  facet normal 2.34326e-17 0.382683 0.92388
    outer loop
      vertex -6.25879 2.97243 2.97243
      vertex -9.74121 2.97243 2.97243
      vertex -6.25879 1.50781e-16 4.20365
    endloop
  endfacet
  facet normal 0.678598 0.281085 0.678598
    outer loop
      vertex -6.25879 2.97243 2.97243
      vertex -6.25879 1.50781e-16 4.20365
      vertex -5.66302 0.297887 3.48449
    endloop
  endfacet
  facet normal 0.678598 0.281085 0.678598
    outer loop
      vertex -5.66302 2.55115 2.55115
      vertex -6.25879 2.97243 2.97243
      vertex -5.66302 0.297887 3.48449
    endloop
  endfacet
  facet normal 0.678598 0.281085 0.678598
    outer loop
      vertex -6.25879 1.50781e-16 4.20365
      vertex -5.66302 7.78198e-17 3.60788
      vertex -5.66302 0.0413124 3.59076
    endloop
  endfacet
  facet normal 0.678598 0.281085 0.678598
    outer loop
      vertex -5.66302 0.297887 3.48449
      vertex -6.25879 1.50781e-16 4.20365
      vertex -5.66302 0.0413124 3.59076
    endloop
  endfacet
  facet normal 0.114722 0.380158 0.917779
    outer loop
      vertex -5.66302 7.78198e-17 3.60788
      vertex 18 -1.55224e-15 0.65
      vertex 18 0.459619 0.459619
    endloop
  endfacet
  facet normal 0.114722 0.380158 0.917779
    outer loop
      vertex -5.66302 0.0413124 3.59076
      vertex -5.66302 7.78198e-17 3.60788
      vertex 18 0.459619 0.459619
    endloop
  endfacet
  facet normal 0.114722 0.380157 0.91778
    outer loop
      vertex -5.66302 0.297887 3.48449
      vertex -5.66302 0.0413124 3.59076
      vertex 18 0.459619 0.459619
    endloop
  endfacet
  facet normal 0.114722 0.380157 0.91778
    outer loop
      vertex -5.66302 2.55115 2.55115
      vertex -5.66302 0.297887 3.48449
      vertex 18 0.459619 0.459619
    endloop
  endfacet
  facet normal 0.114723 0.917779 0.380158
    outer loop
      vertex 18 0.459619 0.459619
      vertex 18 0.65 -3.9801e-17
      vertex -5.66302 2.55115 2.55115
    endloop
  endfacet
  facet normal 0.114723 0.917779 0.380158
    outer loop
      vertex -5.66302 2.55115 2.55115
      vertex 18 0.65 -3.9801e-17
      vertex -5.66302 2.56827 2.50984
    endloop
  endfacet
  facet normal 0.114722 0.91778 0.380157
    outer loop
      vertex 18 0.65 -3.9801e-17
      vertex -5.66302 2.67454 2.25327
      vertex -5.66302 2.56827 2.50984
    endloop
  endfacet
  facet normal 0.114722 0.91778 0.380157
    outer loop
      vertex 18 0.65 -3.9801e-17
      vertex -5.66302 3.60788 -2.20919e-16
      vertex -5.66302 2.67454 2.25327
    endloop
  endfacet
  facet normal 0.114722 0.917779 -0.380158
    outer loop
      vertex 18 0.459619 -0.459619
      vertex -5.66302 3.59076 -0.0413124
      vertex 18 0.65 -3.9801e-17
    endloop
  endfacet
  facet normal 0.114722 0.917779 -0.380158
    outer loop
      vertex 18 0.65 -3.9801e-17
      vertex -5.66302 3.59076 -0.0413124
      vertex -5.66302 3.60788 -2.20919e-16
    endloop
  endfacet
  facet normal 0.114722 0.91778 -0.380157
    outer loop
      vertex 18 0.459619 -0.459619
      vertex -5.66302 2.55115 -2.55115
      vertex -5.66302 3.59076 -0.0413124
    endloop
  endfacet
  facet normal 0.114722 0.91778 -0.380157
    outer loop
      vertex -5.66302 3.59076 -0.0413124
      vertex -5.66302 2.55115 -2.55115
      vertex -5.66302 3.48449 -0.297887
    endloop
  endfacet
  facet normal 0.114723 0.380158 -0.917779
    outer loop
      vertex 18 -1.63184e-15 -0.65
      vertex -5.66302 2.50984 -2.56827
      vertex 18 0.459619 -0.459619
    endloop
  endfacet
  facet normal 0.114723 0.380158 -0.917779
    outer loop
      vertex 18 0.459619 -0.459619
      vertex -5.66302 2.50984 -2.56827
      vertex -5.66302 2.55115 -2.55115
    endloop
  endfacet
  facet normal 0.114722 0.380157 -0.91778
    outer loop
      vertex -5.66302 -3.64018e-16 -3.60788
      vertex -5.66302 2.25327 -2.67454
      vertex 18 -1.63184e-15 -0.65
    endloop
  endfacet
  facet normal 0.114722 0.380157 -0.91778
    outer loop
      vertex 18 -1.63184e-15 -0.65
      vertex -5.66302 2.25327 -2.67454
      vertex -5.66302 2.50984 -2.56827
    endloop
  endfacet
  facet normal 5.65713e-17 0.92388 -0.382683
    outer loop
      vertex -9.74121 2.97243 -2.97243
      vertex -9.74121 3.58461 -1.49449
      vertex -6.25879 2.97243 -2.97243
    endloop
  endfacet
  facet normal 5.65713e-17 0.92388 -0.382683
    outer loop
      vertex -6.25879 2.97243 -2.97243
      vertex -9.74121 3.58461 -1.49449
      vertex -6.25879 4.19404 -0.0232103
    endloop
  endfacet
  facet normal 0.678598 0.281085 -0.678598
    outer loop
      vertex -5.66302 2.50984 -2.56827
      vertex -5.66302 2.25327 -2.67454
      vertex -6.25879 2.97243 -2.97243
    endloop
  endfacet
  facet normal 0.678598 0.281085 -0.678598
    outer loop
      vertex -5.66302 2.55115 -2.55115
      vertex -5.66302 2.50984 -2.56827
      vertex -6.25879 2.97243 -2.97243
    endloop
  endfacet
  facet normal 0.678598 0.678598 -0.281085
    outer loop
      vertex -5.66302 3.48449 -0.297887
      vertex -5.66302 2.55115 -2.55115
      vertex -6.25879 2.97243 -2.97243
    endloop
  endfacet
  facet normal 0.678598 0.678598 -0.281085
    outer loop
      vertex -6.24789 4.1905 -0.00544946
      vertex -5.66302 3.48449 -0.297887
      vertex -6.25879 4.19404 -0.0232103
    endloop
  endfacet
  facet normal 0.678598 0.678598 -0.281085
    outer loop
      vertex -6.25879 4.19404 -0.0232103
      vertex -5.66302 3.48449 -0.297887
      vertex -6.25879 2.97243 -2.97243
    endloop
  endfacet
  facet normal -0.678598 0.678598 -0.281085
    outer loop
      vertex -11.6154 2.03534 -0.710085
      vertex -10.7409 2.9098 -0.710085
      vertex -9.74121 2.97243 -2.97243
    endloop
  endfacet
  facet normal -0.678598 0.678598 -0.281085
    outer loop
      vertex -9.74121 2.97243 -2.97243
      vertex -10.7409 2.9098 -0.710085
      vertex -9.74121 3.58461 -1.49449
    endloop
  endfacet
  facet normal -0.678598 0.678598 -0.281085
    outer loop
      vertex -12.2037 1.23122 -1.23122
      vertex -12.2037 1.44708 -0.710085
      vertex -9.74121 2.97243 -2.97243
    endloop
  endfacet
  facet normal -0.678598 0.678598 -0.281085
    outer loop
      vertex -9.74121 2.97243 -2.97243
      vertex -12.2037 1.44708 -0.710085
      vertex -11.6154 2.03534 -0.710085
    endloop
  endfacet
  facet normal -1 6.12323e-17 -3.7494e-33
    outer loop
      vertex -12.2037 -1.74121 1.06618e-16
      vertex -12.2037 -1.23122 1.23122
      vertex -12.2037 -1.23122 -1.23122
    endloop
  endfacet
  facet normal -1 6.12323e-17 -3.7494e-33
    outer loop
      vertex -12.2037 -1.23122 -1.23122
      vertex -12.2037 -1.23122 1.23122
      vertex -12.2037 3.64018e-16 1.74121
    endloop
  endfacet
  facet normal -1 6.12323e-17 -3.7494e-33
    outer loop
      vertex -12.2037 -1.23122 -1.23122
      vertex -12.2037 3.64018e-16 1.74121
      vertex -12.2037 1.23122 1.23122
    endloop
  endfacet
  facet normal -1 6.12323e-17 -3.7494e-33
    outer loop
      vertex -12.2037 -1.23122 -1.23122
      vertex -12.2037 1.23122 1.23122
      vertex -12.2037 1.44708 0.710085
    endloop
  endfacet
  facet normal -1 6.12323e-17 -3.7494e-33
    outer loop
      vertex -12.2037 -1.23122 -1.23122
      vertex -12.2037 1.44708 0.710085
      vertex -12.2037 1.1649 0.0288255
    endloop
  endfacet
  facet normal -1 6.12323e-17 -3.7494e-33
    outer loop
      vertex -12.2037 -1.23122 -1.23122
      vertex -12.2037 1.1649 0.0288255
      vertex -12.2037 1.15296 -7.05982e-17
    endloop
  endfacet
  facet normal -1 6.12323e-17 -3.7494e-33
    outer loop
      vertex -12.2037 -1.23122 -1.23122
      vertex -12.2037 1.15296 -7.05982e-17
      vertex -12.2037 1.44708 -0.710085
    endloop
  endfacet
  facet normal -1 6.12323e-17 -3.7494e-33
    outer loop
      vertex -12.2037 -1.23122 -1.23122
      vertex -12.2037 1.44708 -0.710085
      vertex -12.2037 1.23122 -1.23122
    endloop
  endfacet
  facet normal -1 6.12323e-17 -3.7494e-33
    outer loop
      vertex -12.2037 -1.23122 -1.23122
      vertex -12.2037 1.23122 -1.23122
      vertex -12.2037 1.50781e-16 -1.74121
    endloop
  endfacet
  facet normal -0.678598 0.281085 0.678598
    outer loop
      vertex -12.2037 1.23122 1.23122
      vertex -12.2037 3.64018e-16 1.74121
      vertex -9.74121 2.97243 2.97243
    endloop
  endfacet
  facet normal -0.678598 0.678598 0.281085
    outer loop
      vertex -12.2037 1.23122 1.23122
      vertex -9.74121 2.97243 2.97243
      vertex -11.1614 2.48935 0.710085
    endloop
  endfacet
  facet normal -0.678598 0.678598 0.281085
    outer loop
      vertex -11.1614 2.48935 0.710085
      vertex -9.74121 2.97243 2.97243
      vertex -9.74121 3.58461 1.49449
    endloop
  endfacet
  facet normal -0.678598 0.678598 0.281085
    outer loop
      vertex -11.1614 2.48935 0.710085
      vertex -9.74121 3.58461 1.49449
      vertex -10.7409 2.9098 0.710085
    endloop
  endfacet
  facet normal -0.678598 0.678598 0.281085
    outer loop
      vertex -11.1614 2.48935 0.710085
      vertex -10.7409 2.9098 0.710085
      vertex -10.8411 2.8096 0.710085
    endloop
  endfacet
  facet normal 5.65713e-17 0.92388 0.382683
    outer loop
      vertex -9.74121 2.97243 2.97243
      vertex -6.25879 2.97243 2.97243
      vertex -9.74121 3.58461 1.49449
    endloop
  endfacet
  facet normal 5.65713e-17 0.92388 0.382683
    outer loop
      vertex -9.74121 3.58461 1.49449
      vertex -6.25879 2.97243 2.97243
      vertex -6.25879 4.19404 0.0232103
    endloop
  endfacet
  facet normal 5.65713e-17 0.92388 0.382683
    outer loop
      vertex -9.74121 3.58461 1.49449
      vertex -6.25879 4.19404 0.0232103
      vertex -6.8445 4.09154 0.270663
    endloop
  endfacet
  facet normal 0.678598 0.678598 0.281085
    outer loop
      vertex -6.25879 2.97243 2.97243
      vertex -5.66302 2.67454 2.25327
      vertex -5.66302 3.60788 -2.20919e-16
    endloop
  endfacet
  facet normal 0.678598 0.678598 0.281085
    outer loop
      vertex -6.25879 4.19404 0.0232103
      vertex -6.25879 2.97243 2.97243
      vertex -6.24455 4.18941 -2.56527e-16
    endloop
  endfacet
  facet normal 0.678598 0.678598 0.281085
    outer loop
      vertex -6.24455 4.18941 -2.56527e-16
      vertex -6.25879 2.97243 2.97243
      vertex -5.66302 3.60788 -2.20919e-16
    endloop
  endfacet
  facet normal 0.678598 0.678598 0.281085
    outer loop
      vertex -6.25879 2.97243 2.97243
      vertex -5.66302 2.55115 2.55115
      vertex -5.66302 2.56827 2.50984
    endloop
  endfacet
  facet normal 0.678598 0.678598 0.281085
    outer loop
      vertex -5.66302 2.67454 2.25327
      vertex -6.25879 2.97243 2.97243
      vertex -5.66302 2.56827 2.50984
    endloop
  endfacet
  facet normal 0.678598 0.678598 -0.281085
    outer loop
      vertex -5.66302 3.59076 -0.0413124
      vertex -5.66302 3.48449 -0.297887
      vertex -6.24789 4.1905 -0.00544946
    endloop
  endfacet
  facet normal 0.678598 0.678598 -0.281085
    outer loop
      vertex -5.66302 3.60788 -2.20919e-16
      vertex -5.66302 3.59076 -0.0413124
      vertex -6.24455 4.18941 -2.56527e-16
    endloop
  endfacet
  facet normal 0.678598 0.678598 -0.281085
    outer loop
      vertex -6.24455 4.18941 -2.56527e-16
      vertex -5.66302 3.59076 -0.0413124
      vertex -6.24789 4.1905 -0.00544946
    endloop
  endfacet
  facet normal 0.307672 -0.879064 -0.36412
    outer loop
      vertex -9.74121 3.58461 -1.49449
      vertex -10.7409 2.9098 -0.710085
      vertex -10.7409 3.43849 -1.98645
    endloop
  endfacet
  facet normal 0.307672 -0.879064 -0.36412
    outer loop
      vertex -10.7409 3.69832 -2.61373
      vertex -9.74121 3.58461 -1.49449
      vertex -10.7409 3.43849 -1.98645
    endloop
  endfacet
  facet normal 0.307672 -0.879064 -0.36412
    outer loop
      vertex -10.7409 3.69832 -2.61373
      vertex -1.5 5.85 -3.58209e-16
      vertex -9.74121 3.58461 -1.49449
    endloop
  endfacet
  facet normal 0.307672 -0.879064 -0.36412
    outer loop
      vertex -1.5 5.85 -3.58209e-16
      vertex -6.24455 4.18941 -2.56527e-16
      vertex -6.24789 4.1905 -0.00544946
    endloop
  endfacet
  facet normal 0.307672 -0.879064 -0.36412
    outer loop
      vertex -1.5 5.85 -3.58209e-16
      vertex -6.24789 4.1905 -0.00544946
      vertex -6.25879 4.19404 -0.0232103
    endloop
  endfacet
  facet normal 0.307672 -0.879064 -0.36412
    outer loop
      vertex -6.25879 4.19404 -0.0232103
      vertex -9.74121 3.58461 -1.49449
      vertex -1.5 5.85 -3.58209e-16
    endloop
  endfacet
  facet normal 0.678598 -0.678598 -0.281085
    outer loop
      vertex -12.2037 1.15296 -7.05982e-17
      vertex -12.2613 1.0953 -6.70681e-17
      vertex -12.2613 2.6783 -3.8217
    endloop
  endfacet
  facet normal 0.678598 -0.678598 -0.281085
    outer loop
      vertex -12.2037 1.44708 -0.710085
      vertex -12.2037 1.15296 -7.05982e-17
      vertex -12.2613 2.6783 -3.8217
    endloop
  endfacet
  facet normal 0.678598 -0.678598 -0.281085
    outer loop
      vertex -10.7409 2.9098 -0.710085
      vertex -11.6154 2.03534 -0.710085
      vertex -10.7409 3.43849 -1.98645
    endloop
  endfacet
  facet normal 0.678598 -0.678598 -0.281085
    outer loop
      vertex -10.7409 3.43849 -1.98645
      vertex -12.2037 1.44708 -0.710085
      vertex -12.2613 2.6783 -3.8217
    endloop
  endfacet
  facet normal 0.678598 -0.678598 -0.281085
    outer loop
      vertex -11.6154 2.03534 -0.710085
      vertex -12.2037 1.44708 -0.710085
      vertex -10.7409 3.43849 -1.98645
    endloop
  endfacet
  facet normal 0.678598 -0.678598 0.281085
    outer loop
      vertex -12.2037 1.1649 0.0288255
      vertex -12.2613 1.0953 -6.70681e-17
      vertex -12.2037 1.15296 -7.05982e-17
    endloop
  endfacet
  facet normal 0.678598 -0.678598 0.281085
    outer loop
      vertex -12.2613 2.6783 3.8217
      vertex -12.2613 1.0953 -6.70681e-17
      vertex -12.2037 1.1649 0.0288255
    endloop
  endfacet
  facet normal 0.678598 -0.678598 0.281085
    outer loop
      vertex -11.1614 2.48935 0.710085
      vertex -12.2613 2.6783 3.8217
      vertex -12.2037 1.44708 0.710085
    endloop
  endfacet
  facet normal 0.678598 -0.678598 0.281085
    outer loop
      vertex -12.2037 1.44708 0.710085
      vertex -12.2613 2.6783 3.8217
      vertex -12.2037 1.1649 0.0288255
    endloop
  endfacet
  facet normal 0.678598 -0.678598 0.281085
    outer loop
      vertex -10.8411 2.8096 0.710085
      vertex -12.2613 2.6783 3.8217
      vertex -11.1614 2.48935 0.710085
    endloop
  endfacet
  facet normal 0.678598 -0.678598 0.281085
    outer loop
      vertex -10.7409 2.93055 0.760184
      vertex -12.2613 2.6783 3.8217
      vertex -10.8411 2.8096 0.710085
    endloop
  endfacet
  facet normal 0.678598 -0.678598 0.281085
    outer loop
      vertex -10.7409 3.75337 2.74663
      vertex -12.2613 2.6783 3.8217
      vertex -10.7409 2.93055 0.760184
    endloop
  endfacet
  facet normal -0.678598 0.678598 0.281085
    outer loop
      vertex -12.2037 1.44708 0.710085
      vertex -12.2037 1.23122 1.23122
      vertex -11.1614 2.48935 0.710085
    endloop
  endfacet
  facet normal 0.678598 -0.678598 0.281085
    outer loop
      vertex -10.7409 2.93055 0.760184
      vertex -10.8411 2.8096 0.710085
      vertex -10.7409 2.9098 0.710085
    endloop
  endfacet
  facet normal 0.307673 -0.879064 0.36412
    outer loop
      vertex -10.7409 2.93055 0.760184
      vertex -10.7409 2.9098 0.710085
      vertex -9.74121 3.58461 1.49449
    endloop
  endfacet
  facet normal 0.307673 -0.879064 0.36412
    outer loop
      vertex -10.7409 3.75337 2.74663
      vertex -10.7409 2.93055 0.760184
      vertex -9.74121 3.58461 1.49449
    endloop
  endfacet
  facet normal 0.307673 -0.879064 0.36412
    outer loop
      vertex -6.8445 4.09154 0.270663
      vertex -1.5 6.04038 0.459619
      vertex -9.74121 3.58461 1.49449
    endloop
  endfacet
  facet normal 0.307673 -0.879064 0.36412
    outer loop
      vertex -1.5 6.04038 0.459619
      vertex -10.7409 3.75337 2.74663
      vertex -9.74121 3.58461 1.49449
    endloop
  endfacet
  facet normal 0.307672 -0.879064 0.364122
    outer loop
      vertex -1.5 6.04038 0.459619
      vertex -6.8445 4.09154 0.270663
      vertex -6.25879 4.19404 0.0232103
    endloop
  endfacet
  facet normal 0.307672 -0.879064 0.364122
    outer loop
      vertex -6.24455 4.18941 -2.56527e-16
      vertex -1.5 6.04038 0.459619
      vertex -6.25879 4.19404 0.0232103
    endloop
  endfacet
  facet normal 0.307672 -0.879064 0.364122
    outer loop
      vertex -6.24455 4.18941 -2.56527e-16
      vertex -1.5 5.85 -3.58209e-16
      vertex -1.5 6.04038 0.459619
    endloop
  endfacet
  facet normal 1 -6.12323e-17 3.7494e-33
    outer loop
      vertex -1.5 6.04038 0.459619
      vertex -1.5 5.85 -3.58209e-16
      vertex -1.5 6.04038 -0.459619
    endloop
  endfacet
  facet normal 1 -6.12323e-17 3.7494e-33
    outer loop
      vertex -1.5 6.95962 -0.459619
      vertex -1.5 6.04038 0.459619
      vertex -1.5 6.5 -0.65
    endloop
  endfacet
  facet normal 1 -6.12323e-17 3.7494e-33
    outer loop
      vertex -1.5 6.5 -0.65
      vertex -1.5 6.04038 0.459619
      vertex -1.5 6.04038 -0.459619
    endloop
  endfacet
  facet normal 1 -6.12323e-17 3.7494e-33
    outer loop
      vertex -1.5 7.15 -4.37811e-16
      vertex -1.5 6.04038 0.459619
      vertex -1.5 6.95962 -0.459619
    endloop
  endfacet
  facet normal 1 -6.12323e-17 3.7494e-33
    outer loop
      vertex -1.5 6.95962 0.459619
      vertex -1.5 6.04038 0.459619
      vertex -1.5 7.15 -4.37811e-16
    endloop
  endfacet
  facet normal 1 -6.12323e-17 3.7494e-33
    outer loop
      vertex -1.5 6.5 0.65
      vertex -1.5 6.04038 0.459619
      vertex -1.5 6.95962 0.459619
    endloop
  endfacet
  facet normal 0.307673 -0.879064 -0.364121
    outer loop
      vertex -1.5 5.85 -3.58209e-16
      vertex -10.7409 3.69832 -2.61373
      vertex -10.7409 3.75337 -2.74663
    endloop
  endfacet
  facet normal 0.307673 -0.879064 -0.364121
    outer loop
      vertex -1.5 6.04038 -0.459619
      vertex -1.5 5.85 -3.58209e-16
      vertex -10.7409 3.75337 -2.74663
    endloop
  endfacet
  facet normal 0.678598 -0.678598 -0.281085
    outer loop
      vertex -10.7409 3.69832 -2.61373
      vertex -12.2613 2.6783 -3.8217
      vertex -10.7409 3.75337 -2.74663
    endloop
  endfacet
  facet normal 0.678598 -0.678598 -0.281085
    outer loop
      vertex -10.7409 3.43849 -1.98645
      vertex -12.2613 2.6783 -3.8217
      vertex -10.7409 3.69832 -2.61373
    endloop
  endfacet
  facet normal -2.34326e-17 -0.382683 -0.92388
    outer loop
      vertex -16.7387 2.6783 -3.8217
      vertex -16.7387 4.34716 -4.51296
      vertex -12.2613 2.6783 -3.8217
    endloop
  endfacet
  facet normal -2.34326e-17 -0.382683 -0.92388
    outer loop
      vertex -12.2613 2.6783 -3.8217
      vertex -16.7387 4.34716 -4.51296
      vertex -12.2613 4.34716 -4.51296
    endloop
  endfacet
  facet normal -5.65713e-17 -0.92388 -0.382683
    outer loop
      vertex -12.2613 1.0953 -6.70681e-17
      vertex -16.7387 1.0953 -6.70681e-17
      vertex -16.7387 2.6783 -3.8217
    endloop
  endfacet
  facet normal -5.65713e-17 -0.92388 -0.382683
    outer loop
      vertex -12.2613 2.6783 -3.8217
      vertex -12.2613 1.0953 -6.70681e-17
      vertex -16.7387 2.6783 -3.8217
    endloop
  endfacet
  facet normal 0.678598 -0.281085 -0.678598
    outer loop
      vertex -10.7409 3.75337 -2.74663
      vertex -12.2613 2.6783 -3.8217
      vertex -12.2613 4.34716 -4.51296
    endloop
  endfacet
  facet normal 0.678598 -0.281085 -0.678598
    outer loop
      vertex -10.7409 4.78178 -3.17262
      vertex -10.7409 3.75337 -2.74663
      vertex -12.0126 4.3331 -4.25839
    endloop
  endfacet
  facet normal 0.678598 -0.281085 -0.678598
    outer loop
      vertex -12.0126 4.3331 -4.25839
      vertex -10.7409 3.75337 -2.74663
      vertex -12.2613 4.34716 -4.51296
    endloop
  endfacet
  facet normal -5.65713e-17 -0.92388 0.382683
    outer loop
      vertex -16.7387 2.6783 3.8217
      vertex -16.7387 1.0953 -6.70681e-17
      vertex -12.2613 1.0953 -6.70681e-17
    endloop
  endfacet
  facet normal -5.65713e-17 -0.92388 0.382683
    outer loop
      vertex -12.2613 2.6783 3.8217
      vertex -16.7387 2.6783 3.8217
      vertex -12.2613 1.0953 -6.70681e-17
    endloop
  endfacet
  facet normal -2.34326e-17 -0.382683 0.92388
    outer loop
      vertex -16.7387 4.34716 4.51296
      vertex -16.7387 2.6783 3.8217
      vertex -12.2613 2.6783 3.8217
    endloop
  endfacet
  facet normal -2.34326e-17 -0.382683 0.92388
    outer loop
      vertex -12.2613 4.34716 4.51296
      vertex -16.7387 4.34716 4.51296
      vertex -12.2613 2.6783 3.8217
    endloop
  endfacet
  facet normal 0.678598 -0.281085 0.678598
    outer loop
      vertex -12.0126 4.3331 4.25839
      vertex -12.2613 2.6783 3.8217
      vertex -10.7409 4.51355 3.06151
    endloop
  endfacet
  facet normal 0.678598 -0.281085 0.678598
    outer loop
      vertex -12.2613 4.34716 4.51296
      vertex -12.2613 2.6783 3.8217
      vertex -12.0126 4.3331 4.25839
    endloop
  endfacet
  facet normal 0.678598 -0.281085 0.678598
    outer loop
      vertex -10.7409 4.78178 3.17262
      vertex -12.0126 4.3331 4.25839
      vertex -10.7409 4.51355 3.06151
    endloop
  endfacet
  facet normal 0.678598 -0.281085 0.678598
    outer loop
      vertex -10.7409 3.88627 2.80168
      vertex -12.2613 2.6783 3.8217
      vertex -10.7409 3.75337 2.74663
    endloop
  endfacet
  facet normal 0.678598 -0.281085 0.678598
    outer loop
      vertex -10.7409 4.51355 3.06151
      vertex -12.2613 2.6783 3.8217
      vertex -10.7409 3.88627 2.80168
    endloop
  endfacet
  facet normal 0.307673 -0.364121 0.879064
    outer loop
      vertex -10.7409 3.88627 2.80168
      vertex -10.7409 3.75337 2.74663
      vertex -1.5 6.04038 0.459619
    endloop
  endfacet
  facet normal 0.307673 -0.364121 0.879064
    outer loop
      vertex -1.5 6.5 0.65
      vertex -10.7409 3.88627 2.80168
      vertex -1.5 6.04038 0.459619
    endloop
  endfacet
  facet normal 0.307672 -0.36412 0.879064
    outer loop
      vertex -10.7409 4.51355 3.06151
      vertex -10.7409 3.88627 2.80168
      vertex -1.5 6.5 0.65
    endloop
  endfacet
  facet normal 0.307672 -0.36412 0.879064
    outer loop
      vertex -8.49478 5.65684 2.74893
      vertex -10.7409 4.51355 3.06151
      vertex -1.5 6.5 0.65
    endloop
  endfacet
  facet normal 0.307672 -0.36412 0.879064
    outer loop
      vertex -8.49478 6.5 3.09817
      vertex -8.49478 5.65684 2.74893
      vertex -1.5 6.5 0.65
    endloop
  endfacet
  facet normal 0.307672 -0.36412 0.879064
    outer loop
      vertex -9.9917 5.07367 3.03129
      vertex -10.7409 4.51355 3.06151
      vertex -8.49478 5.65684 2.74893
    endloop
  endfacet
  facet normal 0.307672 -0.36412 0.879064
    outer loop
      vertex -9.9917 5.07367 3.03129
      vertex -10.7409 4.78178 3.17262
      vertex -10.7409 4.51355 3.06151
    endloop
  endfacet
  facet normal 0.307672 0.364122 0.879064
    outer loop
      vertex -8.49478 6.5 3.09817
      vertex -1.5 6.5 0.65
      vertex -1.5 6.95962 0.459619
    endloop
  endfacet
  facet normal 0.307672 0.364122 0.879064
    outer loop
      vertex -8.49478 6.71232 3.01023
      vertex -8.49478 6.5 3.09817
      vertex -1.5 6.95962 0.459619
    endloop
  endfacet
  facet normal 0.307673 0.36412 0.879064
    outer loop
      vertex -8.49478 7.34316 2.74893
      vertex -8.49478 6.71232 3.01023
      vertex -1.5 6.95962 0.459619
    endloop
  endfacet
  facet normal 0.307673 0.36412 0.879064
    outer loop
      vertex -9.29559 7.65514 2.89998
      vertex -8.49478 7.34316 2.74893
      vertex -10.7409 9.24663 2.74663
    endloop
  endfacet
  facet normal 0.307673 0.36412 0.879064
    outer loop
      vertex -10.7409 9.24663 2.74663
      vertex -8.49478 7.34316 2.74893
      vertex -1.5 6.95962 0.459619
    endloop
  endfacet
  facet normal 0.307673 0.36412 0.879064
    outer loop
      vertex -10.7409 8.21822 3.17262
      vertex -9.29559 7.65514 2.89998
      vertex -10.7409 9.24663 2.74663
    endloop
  endfacet
  facet normal 0.307673 0.879064 0.364121
    outer loop
      vertex -1.5 6.95962 0.459619
      vertex -1.5 7.15 -4.37811e-16
      vertex -10.7409 9.24663 2.74663
    endloop
  endfacet
  facet normal 0.307673 0.879064 0.364121
    outer loop
      vertex -10.7409 9.24663 2.74663
      vertex -1.5 7.15 -4.37811e-16
      vertex -10.7409 9.30168 2.61373
    endloop
  endfacet
  facet normal 0.307672 0.879064 0.36412
    outer loop
      vertex -1.5 7.15 -4.37811e-16
      vertex -10.7409 9.56151 1.98645
      vertex -10.7409 9.30168 2.61373
    endloop
  endfacet
  facet normal 0.307672 0.879064 0.36412
    outer loop
      vertex -1.5 7.15 -4.37811e-16
      vertex -10.7409 10.3843 -6.35857e-16
      vertex -10.7409 9.56151 1.98645
    endloop
  endfacet
  facet normal 0.307672 0.879064 -0.364122
    outer loop
      vertex -1.5 6.95962 -0.459619
      vertex -10.7409 10.3293 -0.132903
      vertex -1.5 7.15 -4.37811e-16
    endloop
  endfacet
  facet normal 0.307672 0.879064 -0.364122
    outer loop
      vertex -1.5 7.15 -4.37811e-16
      vertex -10.7409 10.3293 -0.132903
      vertex -10.7409 10.3843 -6.35857e-16
    endloop
  endfacet
  facet normal 0.307673 0.879064 -0.36412
    outer loop
      vertex -1.5 6.95962 -0.459619
      vertex -10.7409 9.24663 -2.74663
      vertex -10.7409 10.3293 -0.132903
    endloop
  endfacet
  facet normal 0.307673 0.879064 -0.36412
    outer loop
      vertex -10.7409 10.3293 -0.132903
      vertex -10.7409 9.24663 -2.74663
      vertex -10.7409 10.0694 -0.760184
    endloop
  endfacet
  facet normal 0.307673 0.364121 -0.879064
    outer loop
      vertex -1.5 6.5 -0.65
      vertex -10.7409 9.11373 -2.80168
      vertex -1.5 6.95962 -0.459619
    endloop
  endfacet
  facet normal 0.307673 0.364121 -0.879064
    outer loop
      vertex -1.5 6.95962 -0.459619
      vertex -10.7409 9.11373 -2.80168
      vertex -10.7409 9.24663 -2.74663
    endloop
  endfacet
  facet normal 0.307672 0.36412 -0.879064
    outer loop
      vertex -8.49478 6.5 -3.09817
      vertex -8.49478 7.34316 -2.74893
      vertex -1.5 6.5 -0.65
    endloop
  endfacet
  facet normal 0.307672 0.36412 -0.879064
    outer loop
      vertex -1.5 6.5 -0.65
      vertex -8.49478 7.34316 -2.74893
      vertex -9.9917 7.92633 -3.03129
    endloop
  endfacet
  facet normal 0.307672 0.36412 -0.879064
    outer loop
      vertex -9.9917 7.92633 -3.03129
      vertex -10.7409 8.21822 -3.17262
      vertex -1.5 6.5 -0.65
    endloop
  endfacet
  facet normal 0.307672 0.36412 -0.879064
    outer loop
      vertex -1.5 6.5 -0.65
      vertex -10.7409 8.21822 -3.17262
      vertex -10.7409 8.48645 -3.06151
    endloop
  endfacet
  facet normal 0.307672 0.36412 -0.879064
    outer loop
      vertex -1.5 6.5 -0.65
      vertex -10.7409 8.48645 -3.06151
      vertex -10.7409 9.11373 -2.80168
    endloop
  endfacet
  facet normal 0.307672 -0.364122 -0.879064
    outer loop
      vertex -1.5 6.04038 -0.459619
      vertex -8.49478 6.28768 -3.01023
      vertex -1.5 6.5 -0.65
    endloop
  endfacet
  facet normal 0.307672 -0.364122 -0.879064
    outer loop
      vertex -1.5 6.5 -0.65
      vertex -8.49478 6.28768 -3.01023
      vertex -8.49478 6.5 -3.09817
    endloop
  endfacet
  facet normal 0.307673 -0.36412 -0.879064
    outer loop
      vertex -10.7409 3.75337 -2.74663
      vertex -10.7409 4.78178 -3.17262
      vertex -1.5 6.04038 -0.459619
    endloop
  endfacet
  facet normal 0.307673 -0.36412 -0.879064
    outer loop
      vertex -1.5 6.04038 -0.459619
      vertex -10.7409 4.78178 -3.17262
      vertex -9.29559 5.34486 -2.89998
    endloop
  endfacet
  facet normal 0.307673 -0.36412 -0.879064
    outer loop
      vertex -1.5 6.04038 -0.459619
      vertex -9.29559 5.34486 -2.89998
      vertex -8.49478 5.65684 -2.74893
    endloop
  endfacet
  facet normal 0.307673 -0.36412 -0.879064
    outer loop
      vertex -1.5 6.04038 -0.459619
      vertex -8.49478 5.65684 -2.74893
      vertex -8.49478 6.28768 -3.01023
    endloop
  endfacet
  facet normal -6.11392e-17 -0.998478 -0.0551444
    outer loop
      vertex -12.0126 4.80147 -12.739
      vertex -12.0126 4.3331 -4.25839
      vertex -12.2613 4.34716 -4.51296
    endloop
  endfacet
  facet normal -6.11392e-17 -0.998478 -0.0551444
    outer loop
      vertex -16.7387 4.34716 -4.51296
      vertex -12.0126 4.80147 -12.739
      vertex -12.2613 4.34716 -4.51296
    endloop
  endfacet
  facet normal -6.11392e-17 -0.998478 -0.0551444
    outer loop
      vertex -16.7387 4.34716 -4.51296
      vertex -16.9874 4.3331 -4.25839
      vertex -12.0126 4.80147 -12.739
    endloop
  endfacet
  facet normal -6.11392e-17 -0.998478 -0.0551444
    outer loop
      vertex -16.9874 4.3331 -4.25839
      vertex -16.9874 4.80147 -12.739
      vertex -12.0126 4.80147 -12.739
    endloop
  endfacet
  facet normal -0.678598 -0.281085 -0.678598
    outer loop
      vertex -16.7387 2.6783 -3.8217
      vertex -16.9874 4.3331 -4.25839
      vertex -16.7387 4.34716 -4.51296
    endloop
  endfacet
  facet normal -0.678598 -0.281085 -0.678598
    outer loop
      vertex -16.7387 2.6783 -3.8217
      vertex -18.5731 4.89257 -2.90452
      vertex -16.9874 4.3331 -4.25839
    endloop
  endfacet
  facet normal -0.678598 -0.281085 -0.678598
    outer loop
      vertex -16.7387 2.6783 -3.8217
      vertex -19.9047 4.917 -1.583
      vertex -18.5731 4.89257 -2.90452
    endloop
  endfacet
  facet normal -0.678598 -0.281085 -0.678598
    outer loop
      vertex -18.7966 4.97143 -2.71368
      vertex -19.9047 4.917 -1.583
      vertex -19.9047 5.36243 -1.7675
    endloop
  endfacet
  facet normal -0.678598 -0.281085 -0.678598
    outer loop
      vertex -18.5731 4.89257 -2.90452
      vertex -19.9047 4.917 -1.583
      vertex -18.7966 4.97143 -2.71368
    endloop
  endfacet
  facet normal -0.678598 -0.678598 -0.281085
    outer loop
      vertex -16.7387 2.6783 -3.8217
      vertex -16.7387 1.0953 -6.70681e-17
      vertex -19.9047 4.917 -1.583
    endloop
  endfacet
  facet normal -0.678598 -0.678598 -0.281085
    outer loop
      vertex -19.9047 4.917 -1.583
      vertex -16.7387 1.0953 -6.70681e-17
      vertex -19.9047 4.2613 -2.6093e-16
    endloop
  endfacet
  facet normal -0.678598 -0.678598 0.281085
    outer loop
      vertex -19.9047 4.2613 -2.6093e-16
      vertex -16.7387 1.0953 -6.70681e-17
      vertex -16.7387 2.6783 3.8217
    endloop
  endfacet
  facet normal 0.370903 -0.927258 -0.0512111
    outer loop
      vertex -10.7409 4.78178 -3.17262
      vertex -12.0126 4.3331 -4.25839
      vertex -12.0126 4.80147 -12.739
    endloop
  endfacet
  facet normal 0.370903 -0.927258 -0.0512111
    outer loop
      vertex -9.29559 5.34486 -2.89998
      vertex -10.7409 4.78178 -3.17262
      vertex -12.0126 4.80147 -12.739
    endloop
  endfacet
  facet normal -0.678598 -0.678598 0.281085
    outer loop
      vertex -19.9047 4.2613 -2.6093e-16
      vertex -16.7387 2.6783 3.8217
      vertex -19.9047 4.917 1.583
    endloop
  endfacet
  facet normal -0.678598 -0.281085 0.678598
    outer loop
      vertex -16.7387 2.6783 3.8217
      vertex -16.9874 4.3331 4.25839
      vertex -19.9047 4.917 1.583
    endloop
  endfacet
  facet normal -0.678598 -0.281085 0.678598
    outer loop
      vertex -16.7387 2.6783 3.8217
      vertex -16.7387 4.34716 4.51296
      vertex -16.9874 4.3331 4.25839
    endloop
  endfacet
  facet normal -0.678598 -0.281085 0.678598
    outer loop
      vertex -19.3824 5.17815 2.21346
      vertex -19.9047 4.917 1.583
      vertex -16.9874 4.3331 4.25839
    endloop
  endfacet
  facet normal -6.11392e-17 -0.998478 0.0551444
    outer loop
      vertex -16.9874 4.80147 12.739
      vertex -16.9874 4.3331 4.25839
      vertex -16.7387 4.34716 4.51296
    endloop
  endfacet
  facet normal -6.11392e-17 -0.998478 0.0551444
    outer loop
      vertex -12.2613 4.34716 4.51296
      vertex -16.9874 4.80147 12.739
      vertex -16.7387 4.34716 4.51296
    endloop
  endfacet
  facet normal -6.11392e-17 -0.998478 0.0551444
    outer loop
      vertex -12.2613 4.34716 4.51296
      vertex -12.0126 4.3331 4.25839
      vertex -16.9874 4.80147 12.739
    endloop
  endfacet
  facet normal -6.11392e-17 -0.998478 0.0551444
    outer loop
      vertex -12.0126 4.3331 4.25839
      vertex -12.0126 4.80147 12.739
      vertex -16.9874 4.80147 12.739
    endloop
  endfacet
  facet normal 0.370903 -0.927258 0.0512111
    outer loop
      vertex -12.0126 4.80147 12.739
      vertex -12.0126 4.3331 4.25839
      vertex -10.7409 4.78178 3.17262
    endloop
  endfacet
  facet normal 0.370903 -0.927258 0.0512111
    outer loop
      vertex -8.49478 5.79644 5.27666
      vertex -12.0126 4.80147 12.739
      vertex -9.9917 5.07367 3.03129
    endloop
  endfacet
  facet normal 0.370903 -0.927258 0.0512111
    outer loop
      vertex -9.9917 5.07367 3.03129
      vertex -12.0126 4.80147 12.739
      vertex -10.7409 4.78178 3.17262
    endloop
  endfacet
  facet normal 0.370903 -0.927258 0.051211
    outer loop
      vertex -8.49478 5.79644 5.27666
      vertex -9.9917 5.07367 3.03129
      vertex -8.49478 5.65684 2.74893
    endloop
  endfacet
  facet normal 1 -6.12323e-17 3.7494e-33
    outer loop
      vertex -8.49478 5.79644 5.27666
      vertex -8.49478 5.65684 2.74893
      vertex -8.49478 6.5 3.09817
    endloop
  endfacet
  facet normal 1 -6.12323e-17 3.7494e-33
    outer loop
      vertex -8.49478 6.71232 3.01023
      vertex -8.49478 5.79644 5.27666
      vertex -8.49478 6.5 3.09817
    endloop
  endfacet
  facet normal 1 -6.12323e-17 3.7494e-33
    outer loop
      vertex -8.49478 6.71232 3.01023
      vertex -8.49478 7.34316 2.74893
      vertex -8.49478 5.79644 5.27666
    endloop
  endfacet
  facet normal 1 -6.12323e-17 3.7494e-33
    outer loop
      vertex -8.49478 7.34316 2.74893
      vertex -8.49478 7.20356 5.27666
      vertex -8.49478 5.79644 5.27666
    endloop
  endfacet
  facet normal 1 -6.12323e-17 3.7494e-33
    outer loop
      vertex -8.49478 7.20356 5.27666
      vertex -8.49478 6.5 7.46233
      vertex -8.49478 5.79644 5.27666
    endloop
  endfacet
  facet normal 0.370903 0.927258 0.051211
    outer loop
      vertex -8.49478 7.20356 5.27666
      vertex -8.49478 7.34316 2.74893
      vertex -12.0126 8.19853 12.739
    endloop
  endfacet
  facet normal 0.370903 0.927258 0.051211
    outer loop
      vertex -12.0126 8.19853 12.739
      vertex -8.49478 7.34316 2.74893
      vertex -9.29559 7.65514 2.89998
    endloop
  endfacet
  facet normal 0.370903 0.927258 0.0512111
    outer loop
      vertex -9.29559 7.65514 2.89998
      vertex -10.7409 8.21822 3.17262
      vertex -12.0126 8.19853 12.739
    endloop
  endfacet
  facet normal 0.370903 0.927258 0.0512111
    outer loop
      vertex -12.0126 8.19853 12.739
      vertex -10.7409 8.21822 3.17262
      vertex -12.0126 8.6669 4.25839
    endloop
  endfacet
  facet normal 0.678598 0.281085 0.678598
    outer loop
      vertex -12.0126 8.6669 4.25839
      vertex -10.7409 8.21822 3.17262
      vertex -10.7409 9.24663 2.74663
    endloop
  endfacet
  facet normal 0.678598 0.281085 0.678598
    outer loop
      vertex -12.2613 8.65284 4.51296
      vertex -12.0126 8.6669 4.25839
      vertex -12.2613 10.3217 3.8217
    endloop
  endfacet
  facet normal 0.678598 0.281085 0.678598
    outer loop
      vertex -12.2613 10.3217 3.8217
      vertex -12.0126 8.6669 4.25839
      vertex -10.7409 9.24663 2.74663
    endloop
  endfacet
  facet normal 0.678598 0.678598 0.281085
    outer loop
      vertex -12.2613 10.3217 3.8217
      vertex -10.7409 9.24663 2.74663
      vertex -10.7409 9.30168 2.61373
    endloop
  endfacet
  facet normal 0.678598 0.678598 0.281085
    outer loop
      vertex -10.7409 9.56151 1.98645
      vertex -12.2613 10.3217 3.8217
      vertex -10.7409 9.30168 2.61373
    endloop
  endfacet
  facet normal 0.678598 0.678598 0.281085
    outer loop
      vertex -12.2613 10.3217 3.8217
      vertex -10.7409 9.56151 1.98645
      vertex -10.7409 10.3843 -6.35857e-16
    endloop
  endfacet
  facet normal 0.678598 0.678598 0.281085
    outer loop
      vertex -12.2613 11.9047 -7.28952e-16
      vertex -12.2613 10.3217 3.8217
      vertex -10.7409 10.3843 -6.35857e-16
    endloop
  endfacet
  facet normal 0.678598 0.678598 -0.281085
    outer loop
      vertex -10.7409 10.3293 -0.132903
      vertex -10.7409 10.0694 -0.760184
      vertex -12.2613 11.9047 -7.28952e-16
    endloop
  endfacet
  facet normal 0.678598 0.678598 -0.281085
    outer loop
      vertex -10.7409 10.3843 -6.35857e-16
      vertex -10.7409 10.3293 -0.132903
      vertex -12.2613 11.9047 -7.28952e-16
    endloop
  endfacet
  facet normal 0.678598 0.678598 -0.281085
    outer loop
      vertex -10.7409 10.0694 -0.760184
      vertex -10.7409 9.24663 -2.74663
      vertex -12.2613 10.3217 -3.8217
    endloop
  endfacet
  facet normal 0.678598 0.678598 -0.281085
    outer loop
      vertex -12.2613 11.9047 -7.28952e-16
      vertex -10.7409 10.0694 -0.760184
      vertex -12.2613 10.3217 -3.8217
    endloop
  endfacet
  facet normal 0.678598 0.281085 -0.678598
    outer loop
      vertex -10.7409 9.11373 -2.80168
      vertex -10.7409 8.48645 -3.06151
      vertex -12.2613 10.3217 -3.8217
    endloop
  endfacet
  facet normal 0.678598 0.281085 -0.678598
    outer loop
      vertex -10.7409 9.24663 -2.74663
      vertex -10.7409 9.11373 -2.80168
      vertex -12.2613 10.3217 -3.8217
    endloop
  endfacet
  facet normal 0.678598 0.281085 -0.678598
    outer loop
      vertex -10.7409 8.48645 -3.06151
      vertex -10.7409 8.21822 -3.17262
      vertex -12.0126 8.6669 -4.25839
    endloop
  endfacet
  facet normal 0.678598 0.281085 -0.678598
    outer loop
      vertex -12.2613 10.3217 -3.8217
      vertex -10.7409 8.48645 -3.06151
      vertex -12.0126 8.6669 -4.25839
    endloop
  endfacet
  facet normal 0.678598 0.281085 -0.678598
    outer loop
      vertex -12.2613 8.65284 -4.51296
      vertex -12.2613 10.3217 -3.8217
      vertex -12.0126 8.6669 -4.25839
    endloop
  endfacet
  facet normal 0.370903 0.927258 -0.0512111
    outer loop
      vertex -8.49478 7.20356 -5.27666
      vertex -12.0126 8.19853 -12.739
      vertex -9.9917 7.92633 -3.03129
    endloop
  endfacet
  facet normal 0.370903 0.927258 -0.0512111
    outer loop
      vertex -9.9917 7.92633 -3.03129
      vertex -12.0126 8.19853 -12.739
      vertex -12.0126 8.6669 -4.25839
    endloop
  endfacet
  facet normal 0.370903 0.927258 -0.0512111
    outer loop
      vertex -9.9917 7.92633 -3.03129
      vertex -12.0126 8.6669 -4.25839
      vertex -10.7409 8.21822 -3.17262
    endloop
  endfacet
  facet normal 0.370903 0.927258 -0.051211
    outer loop
      vertex -8.49478 7.34316 -2.74893
      vertex -8.49478 7.20356 -5.27666
      vertex -9.9917 7.92633 -3.03129
    endloop
  endfacet
  facet normal 1 -6.12323e-17 3.7494e-33
    outer loop
      vertex -8.49478 6.28768 -3.01023
      vertex -8.49478 5.65684 -2.74893
      vertex -8.49478 5.79644 -5.27666
    endloop
  endfacet
  facet normal 1 -6.12323e-17 3.7494e-33
    outer loop
      vertex -8.49478 7.20356 -5.27666
      vertex -8.49478 6.28768 -3.01023
      vertex -8.49478 6.5 -7.46233
    endloop
  endfacet
  facet normal 1 -6.12323e-17 3.7494e-33
    outer loop
      vertex -8.49478 6.5 -7.46233
      vertex -8.49478 6.28768 -3.01023
      vertex -8.49478 5.79644 -5.27666
    endloop
  endfacet
  facet normal 1 -6.12323e-17 3.7494e-33
    outer loop
      vertex -8.49478 6.5 -3.09817
      vertex -8.49478 6.28768 -3.01023
      vertex -8.49478 7.20356 -5.27666
    endloop
  endfacet
  facet normal 1 -6.12323e-17 3.7494e-33
    outer loop
      vertex -8.49478 7.34316 -2.74893
      vertex -8.49478 6.5 -3.09817
      vertex -8.49478 7.20356 -5.27666
    endloop
  endfacet
  facet normal 0.370903 -0.927258 -0.051211
    outer loop
      vertex -9.29559 5.34486 -2.89998
      vertex -12.0126 4.80147 -12.739
      vertex -8.49478 5.79644 -5.27666
    endloop
  endfacet
  facet normal 0.370903 -0.927258 -0.051211
    outer loop
      vertex -8.49478 5.65684 -2.74893
      vertex -9.29559 5.34486 -2.89998
      vertex -8.49478 5.79644 -5.27666
    endloop
  endfacet
  facet normal -5.8287e-17 -0.951899 -0.306412
    outer loop
      vertex -12.0126 4.80147 -12.739
      vertex -16.9874 4.80147 -12.739
      vertex -16.9874 6.5 -18.0157
    endloop
  endfacet
  facet normal -5.8287e-17 -0.951899 -0.306412
    outer loop
      vertex -12.0126 6.5 -18.0157
      vertex -12.0126 4.80147 -12.739
      vertex -16.9874 6.5 -18.0157
    endloop
  endfacet
  facet normal 0.676751 -0.700799 -0.225584
    outer loop
      vertex -8.49478 5.79644 -5.27666
      vertex -12.0126 4.80147 -12.739
      vertex -12.0126 6.5 -18.0157
    endloop
  endfacet
  facet normal -0.676752 -0.700799 -0.225584
    outer loop
      vertex -16.9874 6.5 -18.0157
      vertex -16.9874 4.80147 -12.739
      vertex -20.5052 6.5 -7.46233
    endloop
  endfacet
  facet normal -0.676752 -0.700799 -0.225584
    outer loop
      vertex -20.5052 6.5 -7.46233
      vertex -16.9874 4.80147 -12.739
      vertex -20.5052 5.79644 -5.27666
    endloop
  endfacet
  facet normal -0.370903 -0.927258 -0.0512111
    outer loop
      vertex -16.9874 4.80147 -12.739
      vertex -16.9874 4.3331 -4.25839
      vertex -18.5731 4.89257 -2.90452
    endloop
  endfacet
  facet normal -0.370903 -0.927258 -0.0512111
    outer loop
      vertex -18.7966 4.97143 -2.71368
      vertex -16.9874 4.80147 -12.739
      vertex -18.5731 4.89257 -2.90452
    endloop
  endfacet
  facet normal -0.370903 -0.927258 -0.0512111
    outer loop
      vertex -18.7966 4.97143 -2.71368
      vertex -20.5052 5.79644 -5.27666
      vertex -16.9874 4.80147 -12.739
    endloop
  endfacet
  facet normal -0.370903 -0.927258 -0.051211
    outer loop
      vertex -20.5052 5.79644 -5.27666
      vertex -18.7966 4.97143 -2.71368
      vertex -19.9047 5.36243 -1.7675
    endloop
  endfacet
  facet normal -0.370903 -0.927258 -0.051211
    outer loop
      vertex -19.9047 5.26481 -3.22377e-16
      vertex -20.5052 5.79644 -5.27666
      vertex -19.9047 5.36243 -1.7675
    endloop
  endfacet
  facet normal -0.370903 -0.927258 -0.051211
    outer loop
      vertex -19.9047 5.26481 -3.22377e-16
      vertex -20.5052 5.50502 -3.37085e-16
      vertex -20.5052 5.79644 -5.27666
    endloop
  endfacet
  facet normal -1 6.12323e-17 -3.7494e-33
    outer loop
      vertex -19.9047 4.2613 -2.6093e-16
      vertex -19.9047 4.917 1.583
      vertex -19.9047 4.917 -1.583
    endloop
  endfacet
  facet normal -1 6.12323e-17 -3.7494e-33
    outer loop
      vertex -19.9047 4.917 -1.583
      vertex -19.9047 4.917 1.583
      vertex -19.9047 5.36243 1.7675
    endloop
  endfacet
  facet normal -1 6.12323e-17 -3.7494e-33
    outer loop
      vertex -19.9047 4.917 -1.583
      vertex -19.9047 5.36243 1.7675
      vertex -19.9047 5.26481 -3.22377e-16
    endloop
  endfacet
  facet normal -1 6.12323e-17 -3.7494e-33
    outer loop
      vertex -19.9047 4.917 -1.583
      vertex -19.9047 5.26481 -3.22377e-16
      vertex -19.9047 5.36243 -1.7675
    endloop
  endfacet
  facet normal -0.678598 -0.281085 0.678598
    outer loop
      vertex -19.9047 5.36243 1.7675
      vertex -19.9047 4.917 1.583
      vertex -19.3824 5.17815 2.21346
    endloop
  endfacet
  facet normal -0.370903 -0.927258 0.0512111
    outer loop
      vertex -19.3824 5.17815 2.21346
      vertex -16.9874 4.3331 4.25839
      vertex -16.9874 4.80147 12.739
    endloop
  endfacet
  facet normal -0.370903 -0.927258 0.0512111
    outer loop
      vertex -19.9047 5.36243 1.7675
      vertex -19.3824 5.17815 2.21346
      vertex -16.9874 4.80147 12.739
    endloop
  endfacet
  facet normal -0.370903 -0.927258 0.0512111
    outer loop
      vertex -20.5052 5.50502 -3.37085e-16
      vertex -19.9047 5.36243 1.7675
      vertex -16.9874 4.80147 12.739
    endloop
  endfacet
  facet normal -0.370903 -0.927258 0.0512111
    outer loop
      vertex -19.9047 5.26481 -3.22377e-16
      vertex -19.9047 5.36243 1.7675
      vertex -20.5052 5.50502 -3.37085e-16
    endloop
  endfacet
  facet normal -0.370903 -0.927258 0.051211
    outer loop
      vertex -20.5052 5.50502 -3.37085e-16
      vertex -16.9874 4.80147 12.739
      vertex -20.5052 5.79644 5.27666
    endloop
  endfacet
  facet normal -0.676751 -0.700799 0.225584
    outer loop
      vertex -20.5052 5.79644 5.27666
      vertex -16.9874 4.80147 12.739
      vertex -16.9874 6.5 18.0157
    endloop
  endfacet
  facet normal -5.8287e-17 -0.951899 0.306412
    outer loop
      vertex -16.9874 6.5 18.0157
      vertex -16.9874 4.80147 12.739
      vertex -12.0126 4.80147 12.739
    endloop
  endfacet
  facet normal -5.8287e-17 -0.951899 0.306412
    outer loop
      vertex -12.0126 6.5 18.0157
      vertex -16.9874 6.5 18.0157
      vertex -12.0126 4.80147 12.739
    endloop
  endfacet
  facet normal 0.676752 -0.700799 0.225584
    outer loop
      vertex -12.0126 6.5 18.0157
      vertex -12.0126 4.80147 12.739
      vertex -8.49478 6.5 7.46233
    endloop
  endfacet
  facet normal 0.676752 -0.700799 0.225584
    outer loop
      vertex -8.49478 6.5 7.46233
      vertex -12.0126 4.80147 12.739
      vertex -8.49478 5.79644 5.27666
    endloop
  endfacet
  facet normal 0.676752 0.700799 0.225584
    outer loop
      vertex -12.0126 6.5 18.0157
      vertex -8.49478 6.5 7.46233
      vertex -8.49478 7.20356 5.27666
    endloop
  endfacet
  facet normal 0.676751 0.700799 0.225584
    outer loop
      vertex -12.0126 8.19853 12.739
      vertex -12.0126 6.5 18.0157
      vertex -8.49478 7.20356 5.27666
    endloop
  endfacet
  facet normal 5.8287e-17 0.951899 0.306412
    outer loop
      vertex -16.9874 6.5 18.0157
      vertex -12.0126 6.5 18.0157
      vertex -16.9874 8.19853 12.739
    endloop
  endfacet
  facet normal 5.8287e-17 0.951899 0.306412
    outer loop
      vertex -16.9874 8.19853 12.739
      vertex -12.0126 6.5 18.0157
      vertex -12.0126 8.19853 12.739
    endloop
  endfacet
  facet normal 6.11392e-17 0.998478 0.0551444
    outer loop
      vertex -16.9874 8.19853 12.739
      vertex -12.0126 8.19853 12.739
      vertex -16.9874 8.6669 4.25839
    endloop
  endfacet
  facet normal 6.11392e-17 0.998478 0.0551444
    outer loop
      vertex -12.2613 8.65284 4.51296
      vertex -12.0126 8.19853 12.739
      vertex -12.0126 8.6669 4.25839
    endloop
  endfacet
  facet normal 6.11392e-17 0.998478 0.0551444
    outer loop
      vertex -16.7387 8.65284 4.51296
      vertex -12.0126 8.19853 12.739
      vertex -12.2613 8.65284 4.51296
    endloop
  endfacet
  facet normal 6.11392e-17 0.998478 0.0551444
    outer loop
      vertex -16.9874 8.6669 4.25839
      vertex -12.0126 8.19853 12.739
      vertex -16.7387 8.65284 4.51296
    endloop
  endfacet
  facet normal 2.34326e-17 0.382683 0.92388
    outer loop
      vertex -16.7387 10.3217 3.8217
      vertex -16.7387 8.65284 4.51296
      vertex -12.2613 8.65284 4.51296
    endloop
  endfacet
  facet normal 2.34326e-17 0.382683 0.92388
    outer loop
      vertex -12.2613 10.3217 3.8217
      vertex -16.7387 10.3217 3.8217
      vertex -12.2613 8.65284 4.51296
    endloop
  endfacet
  facet normal 5.65713e-17 0.92388 0.382683
    outer loop
      vertex -16.7387 10.3217 3.8217
      vertex -12.2613 10.3217 3.8217
      vertex -16.7387 11.9047 -7.28952e-16
    endloop
  endfacet
  facet normal 5.65713e-17 0.92388 0.382683
    outer loop
      vertex -16.7387 11.9047 -7.28952e-16
      vertex -12.2613 10.3217 3.8217
      vertex -12.2613 11.9047 -7.28952e-16
    endloop
  endfacet
  facet normal 5.65713e-17 0.92388 -0.382683
    outer loop
      vertex -16.7387 10.3217 -3.8217
      vertex -16.7387 11.9047 -7.28952e-16
      vertex -12.2613 10.3217 -3.8217
    endloop
  endfacet
  facet normal 5.65713e-17 0.92388 -0.382683
    outer loop
      vertex -12.2613 10.3217 -3.8217
      vertex -16.7387 11.9047 -7.28952e-16
      vertex -12.2613 11.9047 -7.28952e-16
    endloop
  endfacet
  facet normal 2.34326e-17 0.382683 -0.92388
    outer loop
      vertex -16.7387 8.65284 -4.51296
      vertex -16.7387 10.3217 -3.8217
      vertex -12.2613 8.65284 -4.51296
    endloop
  endfacet
  facet normal 2.34326e-17 0.382683 -0.92388
    outer loop
      vertex -12.2613 8.65284 -4.51296
      vertex -16.7387 10.3217 -3.8217
      vertex -12.2613 10.3217 -3.8217
    endloop
  endfacet
  facet normal 6.11392e-17 0.998478 -0.0551444
    outer loop
      vertex -16.9874 8.19853 -12.739
      vertex -16.9874 8.6669 -4.25839
      vertex -12.0126 8.19853 -12.739
    endloop
  endfacet
  facet normal 6.11392e-17 0.998478 -0.0551444
    outer loop
      vertex -12.0126 8.19853 -12.739
      vertex -16.9874 8.6669 -4.25839
      vertex -16.7387 8.65284 -4.51296
    endloop
  endfacet
  facet normal 6.11392e-17 0.998478 -0.0551444
    outer loop
      vertex -12.0126 8.19853 -12.739
      vertex -16.7387 8.65284 -4.51296
      vertex -12.2613 8.65284 -4.51296
    endloop
  endfacet
  facet normal 6.11392e-17 0.998478 -0.0551444
    outer loop
      vertex -12.2613 8.65284 -4.51296
      vertex -12.0126 8.6669 -4.25839
      vertex -12.0126 8.19853 -12.739
    endloop
  endfacet
  facet normal 5.8287e-17 0.951899 -0.306412
    outer loop
      vertex -16.9874 6.5 -18.0157
      vertex -16.9874 8.19853 -12.739
      vertex -12.0126 6.5 -18.0157
    endloop
  endfacet
  facet normal 5.8287e-17 0.951899 -0.306412
    outer loop
      vertex -12.0126 6.5 -18.0157
      vertex -16.9874 8.19853 -12.739
      vertex -12.0126 8.19853 -12.739
    endloop
  endfacet
  facet normal 0.676752 0.700799 -0.225584
    outer loop
      vertex -8.49478 6.5 -7.46233
      vertex -12.0126 6.5 -18.0157
      vertex -12.0126 8.19853 -12.739
    endloop
  endfacet
  facet normal 0.676752 0.700799 -0.225584
    outer loop
      vertex -8.49478 7.20356 -5.27666
      vertex -8.49478 6.5 -7.46233
      vertex -12.0126 8.19853 -12.739
    endloop
  endfacet
  facet normal 0.676752 -0.700799 -0.225584
    outer loop
      vertex -8.49478 6.5 -7.46233
      vertex -8.49478 5.79644 -5.27666
      vertex -12.0126 6.5 -18.0157
    endloop
  endfacet
  facet normal -0.676751 0.700799 -0.225584
    outer loop
      vertex -16.9874 8.19853 -12.739
      vertex -16.9874 6.5 -18.0157
      vertex -20.5052 7.20356 -5.27666
    endloop
  endfacet
  facet normal -0.676752 0.700799 -0.225584
    outer loop
      vertex -20.5052 7.20356 -5.27666
      vertex -16.9874 6.5 -18.0157
      vertex -20.5052 6.5 -7.46233
    endloop
  endfacet
  facet normal -1 6.12323e-17 -3.7494e-33
    outer loop
      vertex -20.5052 5.50502 -3.37085e-16
      vertex -20.5052 5.79644 5.27666
      vertex -20.5052 5.79644 -5.27666
    endloop
  endfacet
  facet normal -1 6.12323e-17 -3.7494e-33
    outer loop
      vertex -20.5052 5.79644 -5.27666
      vertex -20.5052 5.79644 5.27666
      vertex -20.5052 6.5 7.46233
    endloop
  endfacet
  facet normal -1 6.12323e-17 -3.7494e-33
    outer loop
      vertex -20.5052 5.79644 -5.27666
      vertex -20.5052 6.5 7.46233
      vertex -20.5052 7.20356 5.27666
    endloop
  endfacet
  facet normal -1 6.12323e-17 -3.7494e-33
    outer loop
      vertex -20.5052 5.79644 -5.27666
      vertex -20.5052 7.20356 5.27666
      vertex -20.5052 7.49498 -4.58935e-16
    endloop
  endfacet
  facet normal -1 6.12323e-17 -3.7494e-33
    outer loop
      vertex -20.5052 5.79644 -5.27666
      vertex -20.5052 7.49498 -4.58935e-16
      vertex -20.5052 7.20356 -5.27666
    endloop
  endfacet
  facet normal -1 6.12323e-17 -3.7494e-33
    outer loop
      vertex -20.5052 5.79644 -5.27666
      vertex -20.5052 7.20356 -5.27666
      vertex -20.5052 6.5 -7.46233
    endloop
  endfacet
  facet normal -0.676752 -0.700799 0.225584
    outer loop
      vertex -20.5052 6.5 7.46233
      vertex -20.5052 5.79644 5.27666
      vertex -16.9874 6.5 18.0157
    endloop
  endfacet
  facet normal -0.676752 0.700799 0.225584
    outer loop
      vertex -16.9874 8.19853 12.739
      vertex -20.5052 6.5 7.46233
      vertex -16.9874 6.5 18.0157
    endloop
  endfacet
  facet normal -0.676752 0.700799 0.225584
    outer loop
      vertex -20.5052 7.20356 5.27666
      vertex -20.5052 6.5 7.46233
      vertex -16.9874 8.19853 12.739
    endloop
  endfacet
  facet normal -0.370903 0.927258 0.0512111
    outer loop
      vertex -20.5052 7.20356 5.27666
      vertex -16.9874 8.19853 12.739
      vertex -18.7966 8.02857 2.71368
    endloop
  endfacet
  facet normal -0.370903 0.927258 0.0512111
    outer loop
      vertex -18.5731 8.10743 2.90452
      vertex -16.9874 8.19853 12.739
      vertex -16.9874 8.6669 4.25839
    endloop
  endfacet
  facet normal -0.370903 0.927258 0.0512111
    outer loop
      vertex -18.7966 8.02857 2.71368
      vertex -16.9874 8.19853 12.739
      vertex -18.5731 8.10743 2.90452
    endloop
  endfacet
  facet normal -0.678598 0.281085 0.678598
    outer loop
      vertex -18.5731 8.10743 2.90452
      vertex -16.9874 8.6669 4.25839
      vertex -16.7387 10.3217 3.8217
    endloop
  endfacet
  facet normal -0.678598 0.281085 0.678598
    outer loop
      vertex -16.7387 10.3217 3.8217
      vertex -16.9874 8.6669 4.25839
      vertex -16.7387 8.65284 4.51296
    endloop
  endfacet
  facet normal -0.678598 0.281085 0.678598
    outer loop
      vertex -19.9047 7.63757 1.7675
      vertex -18.7966 8.02857 2.71368
      vertex -19.9047 8.083 1.583
    endloop
  endfacet
  facet normal -0.678598 0.281085 0.678598
    outer loop
      vertex -19.9047 8.083 1.583
      vertex -18.7966 8.02857 2.71368
      vertex -18.5731 8.10743 2.90452
    endloop
  endfacet
  facet normal -0.678598 0.281085 0.678598
    outer loop
      vertex -19.9047 8.083 1.583
      vertex -18.5731 8.10743 2.90452
      vertex -16.7387 10.3217 3.8217
    endloop
  endfacet
  facet normal -0.678598 0.678598 0.281085
    outer loop
      vertex -16.7387 11.9047 -7.28952e-16
      vertex -19.9047 8.083 1.583
      vertex -16.7387 10.3217 3.8217
    endloop
  endfacet
  facet normal -0.678598 0.678598 -0.281085
    outer loop
      vertex -16.7387 10.3217 -3.8217
      vertex -19.9047 8.7387 -5.35091e-16
      vertex -16.7387 11.9047 -7.28952e-16
    endloop
  endfacet
  facet normal -0.678598 0.678598 0.281085
    outer loop
      vertex -19.9047 8.7387 -5.35091e-16
      vertex -19.9047 8.083 1.583
      vertex -16.7387 11.9047 -7.28952e-16
    endloop
  endfacet
  facet normal -0.678598 0.678598 -0.281085
    outer loop
      vertex -16.7387 10.3217 -3.8217
      vertex -19.9047 8.083 -1.583
      vertex -19.9047 8.7387 -5.35091e-16
    endloop
  endfacet
  facet normal -0.678598 0.281085 -0.678598
    outer loop
      vertex -19.3824 7.82185 -2.21346
      vertex -19.9047 8.083 -1.583
      vertex -16.9874 8.6669 -4.25839
    endloop
  endfacet
  facet normal -0.678598 0.281085 -0.678598
    outer loop
      vertex -16.9874 8.6669 -4.25839
      vertex -19.9047 8.083 -1.583
      vertex -16.7387 10.3217 -3.8217
    endloop
  endfacet
  facet normal -0.678598 0.281085 -0.678598
    outer loop
      vertex -16.9874 8.6669 -4.25839
      vertex -16.7387 10.3217 -3.8217
      vertex -16.7387 8.65284 -4.51296
    endloop
  endfacet
  facet normal -0.370903 0.927258 -0.0512111
    outer loop
      vertex -20.5052 7.49498 -4.58935e-16
      vertex -19.9047 7.63757 -1.7675
      vertex -16.9874 8.19853 -12.739
    endloop
  endfacet
  facet normal -0.370903 0.927258 -0.0512111
    outer loop
      vertex -20.5052 7.49498 -4.58935e-16
      vertex -19.9047 7.73519 -4.73644e-16
      vertex -19.9047 7.63757 -1.7675
    endloop
  endfacet
  facet normal -0.370903 0.927258 -0.0512111
    outer loop
      vertex -16.9874 8.19853 -12.739
      vertex -19.3824 7.82185 -2.21346
      vertex -16.9874 8.6669 -4.25839
    endloop
  endfacet
  facet normal -0.370903 0.927258 -0.0512111
    outer loop
      vertex -19.3824 7.82185 -2.21346
      vertex -16.9874 8.19853 -12.739
      vertex -19.9047 7.63757 -1.7675
    endloop
  endfacet
  facet normal -0.370903 0.927258 -0.051211
    outer loop
      vertex -16.9874 8.19853 -12.739
      vertex -20.5052 7.20356 -5.27666
      vertex -20.5052 7.49498 -4.58935e-16
    endloop
  endfacet
  facet normal -0.370903 0.927258 0.051211
    outer loop
      vertex -20.5052 7.20356 5.27666
      vertex -19.9047 7.63757 1.7675
      vertex -20.5052 7.49498 -4.58935e-16
    endloop
  endfacet
  facet normal -0.370903 0.927258 0.051211
    outer loop
      vertex -20.5052 7.20356 5.27666
      vertex -18.7966 8.02857 2.71368
      vertex -19.9047 7.63757 1.7675
    endloop
  endfacet
  facet normal -0.370903 0.927258 0.051211
    outer loop
      vertex -19.9047 7.73519 -4.73644e-16
      vertex -20.5052 7.49498 -4.58935e-16
      vertex -19.9047 7.63757 1.7675
    endloop
  endfacet
  facet normal -1 6.12323e-17 -3.7494e-33
    outer loop
      vertex -19.9047 7.63757 -1.7675
      vertex -19.9047 7.73519 -4.73644e-16
      vertex -19.9047 8.083 -1.583
    endloop
  endfacet
  facet normal -1 6.12323e-17 -3.7494e-33
    outer loop
      vertex -19.9047 8.083 -1.583
      vertex -19.9047 7.73519 -4.73644e-16
      vertex -19.9047 7.63757 1.7675
    endloop
  endfacet
  facet normal -1 6.12323e-17 -3.7494e-33
    outer loop
      vertex -19.9047 8.083 -1.583
      vertex -19.9047 7.63757 1.7675
      vertex -19.9047 8.083 1.583
    endloop
  endfacet
  facet normal -1 6.12323e-17 -3.7494e-33
    outer loop
      vertex -19.9047 8.083 -1.583
      vertex -19.9047 8.083 1.583
      vertex -19.9047 8.7387 -5.35091e-16
    endloop
  endfacet
  facet normal -0.678598 0.281085 -0.678598
    outer loop
      vertex -19.3824 7.82185 -2.21346
      vertex -19.9047 7.63757 -1.7675
      vertex -19.9047 8.083 -1.583
    endloop
  endfacet
endsolid OpenSCAD_Model
