solid OpenSCAD_Model
  facet normal 0 0 -1
    outer loop
      vertex -0.25 -12.9904 -3.53553
      vertex -0.25 12.9904 -3.53553
      vertex 0.5 0 -3.53553
    endloop
  endfacet
  facet normal 0.995859 0.057496 0.0704179
    outer loop
      vertex -0.25 12.9904 -3.53553
      vertex 0 0 3.53553
      vertex 0.5 0 -3.53553
    endloop
  endfacet
  facet normal -0.999376 0 0.0353333
    outer loop
      vertex -0.25 -12.9904 -3.53553
      vertex 0 0 3.53553
      vertex -0.25 12.9904 -3.53553
    endloop
  endfacet
  facet normal 0.995859 -0.057496 0.0704179
    outer loop
      vertex -0.25 -12.9904 -3.53553
      vertex 0.5 0 -3.53553
      vertex 0 0 3.53553
    endloop
  endfacet
endsolid OpenSCAD_Model
