solid OpenSCAD_Model
  facet normal -1 -1.22465e-16 -4.88534e-17
    outer loop
      vertex -3.09449e-07 -1 -3.57494e-16
      vertex -3.09449e-07 -2.44929e-16 1
      vertex -3.09449e-07 -2.44929e-16 -1
    endloop
  endfacet
  facet normal -1 -1.22465e-16 -4.88534e-17
    outer loop
      vertex -3.09449e-07 -2.44929e-16 -1
      vertex -3.09449e-07 -2.44929e-16 1
      vertex -3.09449e-07 1 -3.57494e-16
    endloop
  endfacet
  facet normal 0.333333 -0.666667 0.666667
    outer loop
      vertex 2 3.78966e-23 -8.65956e-17
      vertex -3.09449e-07 -2.44929e-16 1
      vertex -3.09449e-07 -1 -3.57494e-16
    endloop
  endfacet
  facet normal 0.333333 -0.666667 -0.666667
    outer loop
      vertex -3.09449e-07 -2.44929e-16 -1
      vertex 2 3.78966e-23 -8.65956e-17
      vertex -3.09449e-07 -1 -3.57494e-16
    endloop
  endfacet
  facet normal 0.333333 0.666667 -0.666667
    outer loop
      vertex -3.09449e-07 -2.44929e-16 -1
      vertex -3.09449e-07 1 -3.57494e-16
      vertex 2 3.78966e-23 -8.65956e-17
    endloop
  endfacet
  facet normal 0.333333 0.666667 0.666667
    outer loop
      vertex -3.09449e-07 1 -3.57494e-16
      vertex -3.09449e-07 -2.44929e-16 1
      vertex 2 3.78966e-23 -8.65956e-17
    endloop
  endfacet
endsolid OpenSCAD_Model
